<?xml version="1.0" encoding="UTF-8"?>
<svg id="uuid-82316517-7186-4d24-9e5d-d505506db2f5" data-name="uuid-b498ccea-ce59-466d-bab1-7d9c2e190efe" xmlns="http://www.w3.org/2000/svg" viewBox="0 0 32 32">
  <path d="M3.16,14.73l-2.14-3.72C-.97,7.58.21,3.17,3.64,1.19c3.43-1.98,7.84-.8,9.82,2.63l2.61,4.52c.49.84,1.57,1.13,2.42.65l5.37-3.1c.74-.43,1.69-.17,2.12.57.43.74.17,1.69-.57,2.12l-5.37,3.1c-2.31,1.34-5.32.53-6.66-1.78l-2.61-4.52c-1.12-1.95-3.64-2.62-5.58-1.49-1.95,1.12-2.62,3.64-1.49,5.58l2.14,3.72c.18.32.07.72-.24.91l-1.54.89c-.32.18-.72.07-.91-.24h0Z" style="fill: #22acb6; fill-rule: evenodd;"/>
  <path d="M28.9,17.32l2.14,3.72c1.98,3.43.8,7.84-2.63,9.82-3.43,1.98-7.84.8-9.82-2.63l-2.61-4.52c-.49-.84-1.57-1.13-2.42-.65l-5.37,3.1c-.74.43-1.69.17-2.12-.57s-.17-1.69.57-2.12l5.37-3.1c2.31-1.34,5.32-.53,6.66,1.78l2.61,4.52c1.12,1.94,3.64,2.62,5.58,1.49,1.94-1.12,2.62-3.64,1.49-5.58l-2.14-3.72c-.18-.32-.07-.72.24-.91l1.54-.89c.32-.18.72-.07.91.24h0Z" style="fill: #22acb6; fill-rule: evenodd;"/>
  <path d="M14.74,28.9l-3.72,2.14c-3.43,1.98-7.84.8-9.82-2.63-1.98-3.43-.8-7.84,2.63-9.82l4.52-2.61c.84-.49,1.13-1.57.65-2.42l-3.1-5.37c-.43-.74-.17-1.69.57-2.12s1.69-.17,2.12.57l3.1,5.37c1.34,2.31.53,5.32-1.78,6.66l-4.52,2.61c-1.95,1.12-2.62,3.64-1.49,5.58,1.12,1.95,3.64,2.62,5.58,1.49l3.72-2.14c.32-.18.72-.07.91.24l.89,1.54c.18.32.07.72-.24.91h0Z" style="fill: #ee6e2a; fill-rule: evenodd;"/>
  <path d="M17.41,3.1l3.72-2.14c3.43-1.98,7.84-.8,9.82,2.63,1.98,3.43.8,7.84-2.63,9.82l-4.52,2.61c-.84.49-1.13,1.57-.65,2.42l3.1,5.37c.43.74.17,1.69-.57,2.12-.74.43-1.69.17-2.12-.57l-3.1-5.37c-1.34-2.31-.53-5.32,1.78-6.66l4.52-2.61c1.94-1.12,2.62-3.64,1.49-5.58-1.12-1.95-3.64-2.62-5.58-1.49l-3.72,2.14c-.32.18-.72.07-.91-.24l-.89-1.54c-.18-.32-.07-.72.24-.91h0Z" style="fill: #ee6e2a; fill-rule: evenodd;"/>
</svg>
