<?xml version="1.0" encoding="UTF-8"?>
<svg id="uuid-45f30928-824c-4456-9b46-be4c2216e870" data-name="uuid-5157bea1-249b-4779-a5ac-c380f237f301" xmlns="http://www.w3.org/2000/svg" viewBox="0 0 14.94 14.94">
  <path d="M13.28,0c.15,0,.31,0,.46,0,.63.17,1.02.57,1.19,1.19v.46c-.07.2-.14.39-.21.59-1.48,3.79-2.96,7.58-4.42,11.39-.25.64-.6,1.11-1.28,1.3h-.53c-.64-.19-.97-.65-1.21-1.25-.41-1.06-.87-2.1-1.3-3.15-.31-.75-.84-1.28-1.59-1.59-1.06-.44-2.11-.9-3.18-1.31-.59-.23-1.03-.57-1.22-1.2v-.53c.18-.57.52-.97,1.09-1.19C5.15,3.15,9.21,1.57,13.28,0Z" style="fill: #f05a28;"/>
</svg>