<svg id="uuid-c8443daa-7df2-4bf4-91ad-e1cc99dd80e6" data-name="Layer 1" xmlns="http://www.w3.org/2000/svg" viewBox="0 0 47.28 36.04">
  <path d="M45.82,14.4c1.49.82,1.46,1.97,1.46,4.46s.03,3.63-1.46,4.46v-8.91Z" style="fill: #37fda5;"/>
  <path d="M1.46,23.31C-.03,22.49,0,21.34,0,18.86c0-2.49-.03-3.63,1.46-4.46v8.91Z" style="fill: #37fda5;"/>
  <path d="M43.52,11.18c2.4,1.34,2.71,4.27,2.71,7.68,0,2.14-.12,4.09-.81,5.57-.41.88-1.01,1.6-1.9,2.1h0v-15.35Z" style="fill: #24e4df;"/>
  <path d="M3.76,26.53h0c-.89-.5-1.5-1.22-1.9-2.1-.68-1.49-.81-3.44-.81-5.57,0-3.41.31-6.34,2.71-7.68v15.35Z" style="fill: #24e4df;"/>
  <path d="M29.46,1.99c12.18,1.43,15.12,7.73,15.12,16.87,0,10.44-3.84,17.18-20.94,17.18S2.7,29.3,2.7,18.86C2.7,9.73,5.64,3.43,17.82,1.99h11.64Z" style="fill: #dce9f4;"/>
  <path d="M23.64,28.73c-3.2,0-5.81-.23-7.97-.7-2.04-.45-3.62-1.09-4.83-1.98-1.12-.82-1.9-1.84-2.4-3.1-.44-1.12-.66-2.46-.66-4.09s.21-2.96.66-4.09c.5-1.27,1.28-2.28,2.4-3.1,1.21-.89,2.79-1.54,4.83-1.98,2.16-.47,4.77-.7,7.97-.7s5.81.23,7.97.7c2.04.45,3.62,1.09,4.83,1.98,1.12.82,1.9,1.84,2.4,3.1.44,1.12.66,2.46.66,4.09s-.21,2.96-.66,4.09c-.5,1.27-1.28,2.28-2.4,3.1-1.21.89-2.79,1.54-4.83,1.98-2.16.47-4.77.7-7.97.7Z" style="fill: #23242b;"/>
  <path d="M29.46,1.99s-.13.78-.3,1.58-.87,1.42-1.71,1.48-2.11.12-3.81.12-2.96-.06-3.81-.12-1.53-.66-1.71-1.48-.3-1.58-.3-1.58c0,0,1.52-1.99,5.82-1.99s5.82,1.99,5.82,1.99Z" style="fill: #f15a24;"/>
  <path d="M20.12,20.14c.17.41-.34.77-.67.47,0,0-.01-.01-.02-.02-.72-.63-1.87-1.27-3.54-1.27s-2.81.63-3.54,1.27c0,0-.01.01-.02.02-.33.3-.84-.06-.67-.47.68-1.67,2.32-2.84,4.23-2.84s3.55,1.18,4.23,2.84Z" style="fill: #5fe9ff;"/>
  <path d="M27.15,20.14c-.17.41.34.77.67.47,0,0,.01-.01.02-.02.72-.63,1.87-1.27,3.54-1.27,1.67,0,2.81.63,3.54,1.27,0,0,.01.01.02.02.33.3.84-.06.67-.47-.68-1.67-2.32-2.84-4.23-2.84-1.91,0-3.55,1.18-4.23,2.84Z" style="fill: #5fe9ff;"/>
</svg>