<?xml version="1.0" encoding="UTF-8"?>
<svg id="uuid-d2697c52-ba97-48a0-95b7-d5fb95fd1f87" data-name="uuid-5157bea1-249b-4779-a5ac-c380f237f301" xmlns="http://www.w3.org/2000/svg" viewBox="0 0 15.26 15.26">
  <path d="M11.27,10.29c-.26.8-.88,1.42-1.65,1.85-3.26,1.83-7.06-.81-7.12-4.38-.04-1.56.64-3.14,2.06-4.2,1.99-1.51,5.66-1.03,6.71,1.37v-1.83c0-.19.15-.34.35-.34s.34.15.34.34v7.94c0,.51.3.95.85.95.91,0,1.38-1.53,1.55-2.15.19-.7.28-1.45.28-2.23,0-1.93-.8-3.67-2.06-4.93-1.26-1.27-3-2.04-4.94-2.04C3.78.64.65,3.75.65,7.61c0,2.3,1.07,4.4,2.96,5.73,1.84,1.29,4.19,1.63,6.34.88.34-.11.6.47.19.62-2.34.8-4.87.43-6.89-.99-2.06-1.44-3.24-3.73-3.24-6.25C0,3.41,3.41,0,7.64,0c2.1,0,4.02.86,5.38,2.23,1.37,1.37,2.23,3.28,2.23,5.38,0,.84-.08,1.63-.3,2.41-.28.99-.86,2.62-2.15,2.62-.89,0-1.54-.71-1.54-1.58v-.75ZM11.27,6.76c0-.41-.09-.8-.24-1.18-.95-2.38-4.16-3-6.16-1.42-1.18.94-1.74,2.29-1.7,3.62.09,3.03,3.22,5.23,6.05,3.84.8-.39,1.48-1.05,1.81-1.89.15-.39.24-.77.24-1.18v-1.8Z" style="fill: #f05a28;"/>
</svg>