<?xml version="1.0" encoding="UTF-8"?>
<svg id="uuid-7078aea2-e217-41c6-b738-edc41aaad085" data-name="uuid-5157bea1-249b-4779-a5ac-c380f237f301" xmlns="http://www.w3.org/2000/svg" viewBox="0 0 14.49 11.06">
  <path d="M14.49,1.08v8.92c-.02.06-.05.12-.07.19-.18.52-.64.86-1.19.87-4,0-7.99,0-11.99,0-.67,0-1.23-.56-1.23-1.23C0,6.97,0,4.11,0,1.25c0-.34.13-.62.37-.86C.65.09,1.01,0,1.4,0,5.25,0,9.1.02,12.96,0c.81,0,1.35.36,1.52,1.07,0,0,0,0,.01.01ZM7.22.81c-1.95,0-3.91,0-5.86,0-.08,0-.17-.02-.22.01-.11.06-.22.14-.29.24-.02.03.07.17.13.23,1.64,1.64,3.29,3.27,4.93,4.91.1.1.2.19.32.27.71.47,1.62.37,2.25-.25,1.66-1.66,3.33-3.32,4.99-4.99.01-.01.03-.03.04-.04.1-.08.09-.18,0-.23-.12-.07-.27-.15-.41-.15-1.96,0-3.92,0-5.88,0ZM4.63,6.07c-.06.06-.11.09-.15.13-1.18,1.18-2.36,2.36-3.54,3.54-.15.15-.14.27.05.38.08.05.19.07.29.07,3.95,0,7.9,0,11.86,0,.09,0,.19-.02.27-.06.2-.1.21-.22.06-.37-1.19-1.19-2.37-2.37-3.56-3.56-.04-.04-.09-.08-.15-.13-.25.25-.5.5-.74.74-1.07,1.06-2.57,1.07-3.64,0-.25-.24-.49-.49-.74-.75ZM13.6,8.71V2.31c-1.07,1.07-2.15,2.15-3.2,3.2,1.05,1.05,2.13,2.13,3.2,3.2ZM.81,8.68c1.07-1.07,2.14-2.14,3.16-3.16-1.05-1.05-2.11-2.11-3.16-3.16v6.32Z" style="fill: #f05a28;"/>
</svg>