<?xml version="1.0" encoding="UTF-8"?>
<svg id="uuid-66199bc8-05e8-45e7-85ad-56aa90369d9a" data-name="uuid-5157bea1-249b-4779-a5ac-c380f237f301" xmlns="http://www.w3.org/2000/svg" viewBox="0 0 18.15 11.08">
  <path d="M8.18,11.08c-.21-.04-.42-.08-.63-.13-1.82-.49-3.38-1.42-4.69-2.79-.6-.63-1.17-1.26-1.63-2-.16-.26-.32-.53-.43-.81-.23-.57-.45-1.14-.64-1.72C-.16,2.7.02,1.84.51,1,.84.43,1.31.12,1.96.04c.08,0,.16-.02.25-.03.24-.04.4.06.52.27.28.51.57,1.03.86,1.54.11.19.24.37.35.56.15.25.14.4-.06.61-.17.18-.35.33-.53.5-.17.15-.35.28-.51.44-.27.26-.29.39-.1.72.16.29.33.58.51.86.69,1.1,1.62,1.95,2.74,2.59.2.11.4.23.6.33.19.1.36.06.5-.09.19-.21.37-.42.55-.63.15-.17.3-.34.47-.5.2-.19.35-.19.59-.06.57.33,1.15.67,1.72,1,.16.09.33.19.49.28.12.08.18.19.17.34-.02.38-.09.76-.26,1.1-.1.19-.28.36-.46.5-.5.38-1.05.63-1.68.7-.02,0-.03.01-.05.02h-.44Z" style="fill: #f05a28;"/>
  <circle cx="11.07" cy="4" r=".79" style="fill: #f05a28;"/>
  <circle cx="14.22" cy="4" r=".79" style="fill: #f05a28;"/>
  <circle cx="17.36" cy="4" r=".79" style="fill: #f05a28;"/>
</svg>