<svg xmlns="http://www.w3.org/2000/svg" data-name="Layer 1" viewBox="0 0 83.36 27.81"><path d="M6.42 6.21c3 3 5.87 5.88 8.72 8.72l-8.66 8.66c-.15-.44-.4-.84-.4-1.25-.03-4.97-.03-9.95 0-14.92 0-.39.22-.78.35-1.22ZM18.28 11.98c-.91.9-1.74 1.71-2.56 2.53-.07.06-.14.12-.19.16-2.86-2.86-5.7-5.71-8.71-8.72.5.05.92-.02 1.21.15 3.39 1.92 6.76 3.88 10.24 5.89ZM31.97 13.44l-.81.69c-1.91-1.02-3.2-.97-4.28.15-.96 1-1.13 2.54-.42 3.75.7 1.18 2.09 1.72 3.45 1.33 1.07-.3 1.74-1.11 1.74-2.15h-2.58v-1.13h3.85c.42 1.76-.57 3.64-2.25 4.3-1.96.77-4.33-.1-5.36-1.99-1-1.84-.49-4.09 1.23-5.35 1.69-1.24 3.98-1.11 5.42.4ZM7.05 23.66c2.81-2.8 5.63-5.6 8.43-8.4l2.55 2.61c-.06.04-.17.15-.31.23-3.13 1.81-6.26 3.62-9.4 5.41-.36.21-.81.25-1.22.38-.02-.07-.03-.15-.05-.22ZM45.58 21.38c.33-.15.61-.28.88-.4.75.84 1.39 1.1 2.06.8.72-.33.87-.97.84-1.52-.7.08-1.41.31-2.06.22-1.3-.19-2.17-1.56-2-2.93s1.33-2.42 2.64-2.4h.07c.79.33 1.61.31 2.43.15 0 1.96.1 3.84-.03 5.7-.08 1.2-.94 1.86-2.05 1.98-1.24.14-2.23-.41-2.77-1.6Zm3.82-3.47c0-.93-.62-1.67-1.43-1.68-.84-.01-1.53.75-1.52 1.68 0 .91.66 1.62 1.48 1.63.83.01 1.46-.69 1.47-1.63M61.86 17.46v2.96H60.7v-8.04c1.27.08 2.55.04 3.78.27 1.12.21 1.82 1.46 1.67 2.56-.16 1.27-1.18 2.18-2.53 2.24-.55.03-1.1 0-1.76 0Zm.04-1.17h1.58c.14 0 .29-.03.43-.06.6-.16 1.1-.81 1.08-1.38-.02-.55-.56-1.2-1.14-1.24-.64-.05-1.28-.01-1.96-.01v2.7ZM15.7 15.02c1-1.02 1.91-1.94 2.85-2.89.9.52 1.83 1.02 2.71 1.59.89.57.87 1.76-.04 2.33-.79.5-1.61.97-2.44 1.41-.16.09-.52.04-.65-.08-.83-.76-1.63-1.57-2.44-2.36ZM69.82 16.79c-.34-.15-.64-.29-.94-.42.26-1.05 1.56-1.33 2.53-1.2 1.03.14 1.87.93 2.01 1.9.03.21.03.43.03.65v2.71c-.51-.03-1.08.32-1.19-.27-.67.12-1.32.36-1.97.34-.81-.02-1.45-.74-1.53-1.49-.09-.84.33-1.58 1.22-1.8.7-.17 1.44-.13 2.14-.19-.29-.94-1.23-1.1-2.31-.23Zm2.3 1.54c-.63-.34-1.29-.42-1.77-.13-.21.13-.48.45-.45.64.04.24.32.54.56.63.73.27 1.43-.25 1.65-1.15ZM44.77 17.97c-.01 1.59-1.16 2.73-2.75 2.72-1.58 0-2.79-1.23-2.75-2.81a2.73 2.73 0 0 1 2.8-2.7c1.58.03 2.71 1.2 2.69 2.78Zm-2.71-1.75c-.84-.01-1.55.75-1.55 1.67 0 .89.67 1.63 1.49 1.64.85.01 1.56-.74 1.56-1.66 0-.87-.7-1.65-1.5-1.66ZM38.84 17.98c-.02 1.59-1.18 2.73-2.77 2.71-1.55-.02-2.74-1.23-2.72-2.78s1.24-2.75 2.79-2.72c1.58.02 2.71 1.2 2.7 2.8Zm-2.78-1.76c-.83.02-1.52.82-1.48 1.74.03.91.71 1.59 1.55 1.57.83-.02 1.49-.76 1.49-1.65 0-.92-.71-1.68-1.56-1.66M58.05 17.28c-1.16.49-2.32.99-3.5 1.49.61 1.07 1.57 1.1 2.63.1l.78.57c-.47 1.01-1.7 1.5-2.9 1.17-1.29-.35-2.04-1.53-1.93-3.02.1-1.29 1.11-2.31 2.39-2.4 1.18-.08 2.15.7 2.52 2.09Zm-3.76.53c.85-.36 1.6-.69 2.4-1.03-.42-.47-.83-.67-1.35-.47-.61.24-.96.68-1.05 1.49ZM76.13 18.82c.37-.94.67-1.72.98-2.51q.4-1.03 1.65-.92c-.57 1.35-1.14 2.67-1.7 3.99-.38.88-.77 1.77-1.15 2.65q-.41.95-1.55.76c.3-.67.55-1.34.89-1.97.24-.46.21-.83 0-1.28-.62-1.35-1.19-2.72-1.79-4.1 1.21-.21 1.21-.21 1.6.77.33.82.68 1.64 1.08 2.62ZM52.46 20.42H51.3v-7.91h1.16zM66.8 12.49h1.16v7.93H66.8zM46.38 6.75c1.25 0 2.19.93 2.2 2.18.01 1.29-.95 2.24-2.23 2.23-1.3-.02-2.21-.95-2.2-2.25.01-1.24.96-2.16 2.22-2.16Zm-1.65 2.21c-.01.9.72 1.67 1.61 1.7.87.03 1.67-.8 1.66-1.73 0-.88-.79-1.66-1.66-1.67-.84 0-1.61.8-1.62 1.7ZM28.59 7.67c-.2-.05-.43-.05-.61-.15-.71-.36-1.48-.22-2.03.41-.48.56-.52 1.52-.09 2.08.5.66 1.4.93 2.06.53.37-.22.62-.63.92-.96-.05-.07-.1-.14-.16-.21-.38 0-.76.02-1.14-.01-.13-.01-.24-.15-.36-.23.12-.11.23-.3.36-.31.55-.03 1.1-.01 1.64-.01.13 1.2-.34 2-1.29 2.27-1.09.32-2.22-.15-2.71-1.13-.46-.92-.19-2.11.63-2.74.88-.68 1.94-.61 2.81.19-.01.09-.03.18-.04.27ZM52.64 11.28c-.37-.25-.66-.34-.8-.54-.63-.93-1.22-1.9-1.98-2.82 0 .85.02 1.7-.01 2.55 0 .21-.17.42-.26.63-.08-.22-.22-.44-.22-.66-.02-1.18-.01-2.36-.01-3.54l.18-.18c.25.17.57.3.72.53.59.87 1.12 1.78 1.81 2.64 0-.86-.01-1.71.01-2.57 0-.17.15-.34.24-.51.1.18.29.35.3.53.03 1.23.01 2.45.01 3.93ZM30.67 9.21v1.29h1.78c.05.07.1.13.15.2-.13.14-.25.39-.39.4-.69.04-1.38.02-2.12.02V6.83c.74 0 1.44-.01 2.13.01.11 0 .21.18.32.28-.12.08-.24.22-.37.22-.48.03-.95.01-1.48.01v1.33c.41 0 .81-.02 1.21.01.17.02.33.16.5.24-.16.09-.31.25-.47.27-.4.04-.81.01-1.26.01M34.31 7.34c-.37 0-.64.02-.9-.01-.1-.01-.19-.15-.28-.23.09-.09.17-.26.26-.26q1.23-.03 2.46 0c.08 0 .16.18.24.28-.1.08-.19.21-.3.22-.26.03-.53.01-.9.01v3.27c0 .39-.08.62-.59.41V7.35ZM40.58 7.34c-.37 0-.64.02-.9-.01-.11-.01-.2-.15-.29-.23.08-.09.16-.27.25-.27.8-.02 1.59-.02 2.39 0 .09 0 .17.17.26.26-.1.08-.18.22-.29.23-.26.03-.52.01-.89.01 0 1.07.01 2.1-.01 3.13 0 .21-.16.42-.25.63-.09-.21-.25-.43-.25-.64-.03-1.01-.01-2.02-.01-3.12ZM38.18 11.28c0-1.54 0-2.83.01-4.13 0-.11.17-.22.26-.33.1.1.3.2.3.31.02 1.23.02 2.45 0 3.68 0 .12-.26.23-.56.47Z" style="fill:#fff"/><path d="M41.64 0h36.88c3.29 0 4.82 1.54 4.83 4.83V23.1c0 3.13-1.59 4.71-4.71 4.71H4.75c-3.2 0-4.75-1.55-4.75-4.77V4.54C0 1.65 1.63 0 4.52 0zm-.03 26.84h37.01c2.56 0 3.76-1.18 3.76-3.73V4.72c0-2.56-1.18-3.74-3.75-3.74H4.72C2.15.98.97 2.16.96 4.71v18.15c0 2.87 1.11 3.98 3.98 3.98H41.6Z" style="fill:#fff"/></svg>