<svg xmlns="http://www.w3.org/2000/svg" data-name="Layer 1" viewBox="0 0 85.37 27.21"><path d="M84.87 24.1c0 1.46-1.08 2.61-2.42 2.61H2.86C1.52 26.71.5 25.6.5 24.14V3.07C.5 1.61 1.52.5 2.86.5h79.58c1.34 0 2.41 1.11 2.41 2.57v21.07-.03Z" style="fill:none;stroke:#fff;stroke-miterlimit:10"/><path d="M18.98 13.68c-.02-2.04 1.67-3.04 1.75-3.08-.96-1.4-2.44-1.59-2.97-1.6-1.25-.13-2.46.75-3.09.75s-1.63-.73-2.68-.71c-1.36.02-2.63.81-3.32 2.03-1.44 2.49-.37 6.14 1.01 8.16.69.98 1.49 2.08 2.55 2.05 1.03-.04 1.41-.66 2.66-.66s1.59.66 2.67.63c1.11-.02 1.8-.99 2.47-1.98.8-1.13 1.12-2.24 1.13-2.3-.03 0-2.15-.82-2.17-3.27M16.94 7.67c.55-.69.93-1.64.83-2.59-.8.04-1.8.55-2.38 1.23-.51.6-.97 1.58-.85 2.5.9.07 1.83-.46 2.41-1.14M33.89 21.11h-1.44l-.79-2.48h-2.74l-.75 2.48h-1.4l2.72-8.44h1.68l2.73 8.44Zm-2.47-3.52-.71-2.2c-.08-.22-.22-.76-.43-1.59h-.02c-.08.36-.22.89-.4 1.59l-.7 2.2h2.27ZM40.88 17.99c0 1.04-.28 1.85-.84 2.45-.5.53-1.12.8-1.87.8-.8 0-1.38-.29-1.73-.86h-.02v3.21h-1.35v-6.56c0-.65-.02-1.32-.05-2h1.19l.08.96h.03c.45-.73 1.14-1.09 2.05-1.09.72 0 1.32.28 1.8.85s.72 1.32.72 2.24m-1.39.05c0-.59-.13-1.08-.4-1.47-.29-.4-.69-.6-1.18-.6-.33 0-.64.11-.91.33s-.45.51-.53.87c-.04.17-.06.3-.06.41v1.02c0 .44.13.82.41 1.12.27.31.63.46 1.06.46.51 0 .91-.19 1.19-.59.28-.39.43-.91.43-1.55M47.88 17.99c0 1.04-.28 1.85-.84 2.45-.5.53-1.12.8-1.87.8-.8 0-1.38-.29-1.73-.86h-.02v3.21h-1.35v-6.56c0-.65-.02-1.32-.05-2h1.19l.08.96h.03c.45-.73 1.13-1.09 2.05-1.09.72 0 1.32.28 1.8.85s.72 1.32.72 2.24m-1.39.05c0-.59-.13-1.08-.4-1.47-.29-.4-.68-.6-1.18-.6-.33 0-.64.11-.91.33s-.45.51-.53.87c-.04.17-.06.3-.06.41v1.02c0 .44.13.82.41 1.12.27.31.62.46 1.06.46.51 0 .91-.19 1.19-.59.28-.39.43-.91.43-1.55M55.71 18.74c0 .72-.25 1.3-.75 1.75-.55.49-1.32.74-2.3.74-.91 0-1.64-.17-2.19-.53l.31-1.13c.59.36 1.25.54 1.96.54.51 0 .91-.11 1.19-.34s.42-.54.42-.92c0-.34-.12-.63-.35-.87-.23-.23-.62-.45-1.17-.65-1.48-.55-2.22-1.36-2.22-2.42q0-1.035.78-1.71c.52-.44 1.21-.67 2.07-.67.77 0 1.41.13 1.92.4l-.34 1.1c-.48-.26-1.01-.39-1.62-.39-.48 0-.85.12-1.11.35-.22.21-.34.46-.34.76 0 .33.13.61.39.83.22.2.63.42 1.23.65.73.29 1.26.63 1.6 1.03q.51.585.51 1.47M60.18 16.04h-1.49V19c0 .75.26 1.13.79 1.13q.36 0 .6-.06l.04 1.03q-.405.15-1.05.15c-.53 0-.95-.16-1.25-.49s-.45-.87-.45-1.64v-3.07h-.89v-1.02h.89v-1.11l1.33-.4v1.52h1.49v1.02ZM66.9 18.02c0 .94-.27 1.7-.8 2.3-.56.62-1.3.93-2.23.93s-1.6-.3-2.14-.89c-.53-.59-.8-1.34-.8-2.24 0-.94.27-1.72.82-2.32s1.28-.9 2.21-.9 1.61.3 2.15.89c.52.58.78 1.32.78 2.23m-1.39.04q0-.84-.36-1.44c-.28-.49-.69-.73-1.21-.73s-.96.24-1.24.73q-.36.6-.36 1.47c0 .87.12 1.04.36 1.44.29.49.7.73 1.23.73s.92-.25 1.21-.74c.25-.41.38-.9.38-1.46M71.3 16.21c-.13-.02-.28-.04-.43-.04-.48 0-.84.18-1.1.54-.22.32-.34.72-.34 1.2v3.19h-1.35v-4.17c.01-.7 0-1.34-.04-1.92h1.18l.05 1.17h.04c.14-.4.37-.72.68-.96.3-.22.63-.33.98-.33.12 0 .24 0 .34.02v1.29ZM77.35 17.78c0 .24-.02.45-.05.61h-4.06c.02.6.21 1.06.59 1.38.34.28.78.42 1.33.42.6 0 1.15-.1 1.64-.29l.21.94c-.58.25-1.26.38-2.04.38-.94 0-1.68-.28-2.22-.83s-.81-1.3-.81-2.24.25-1.68.75-2.29c.52-.65 1.23-.98 2.13-.98s1.54.32 1.99.98q.54.78.54 1.92m-1.29-.35c0-.4-.08-.75-.26-1.04-.23-.38-.59-.56-1.08-.56-.44 0-.8.18-1.08.55-.23.29-.36.64-.4 1.05zM30.92 7.48c0 .75-.22 1.31-.67 1.69-.41.35-1 .52-1.76.52-.38 0-.7-.02-.97-.05V5.56q.525-.09 1.14-.09c.73 0 1.27.16 1.64.47.41.36.62.87.62 1.53m-.7.03c0-.48-.13-.86-.39-1.11-.26-.26-.63-.39-1.12-.39-.21 0-.39.01-.54.04v3.1c.08.01.23.02.45.02.51 0 .9-.14 1.18-.42s.42-.69.42-1.24M34.64 8.13c0 .46-.13.84-.39 1.13-.28.31-.64.46-1.1.46s-.79-.15-1.05-.44-.39-.66-.39-1.1.13-.84.4-1.14.63-.44 1.09-.44.79.15 1.06.44c.26.28.38.65.38 1.1m-.69.01c0-.28-.06-.51-.18-.71q-.21-.36-.6-.36c-.39 0-.47.12-.61.36q-.18.3-.18.72c0 .42.06.51.18.71q.21.36.6.36c.39 0 .45-.12.6-.36q.18-.3.18-.72M39.62 6.66l-.94 2.99h-.61l-.39-1.3c-.1-.32-.18-.65-.24-.97h-.01c-.06.33-.14.65-.24.97l-.41 1.3h-.62l-.88-2.99h.68l.34 1.42c.08.34.15.66.2.96h.01c.05-.25.13-.57.25-.95l.42-1.43h.54l.41 1.4c.1.34.18.67.24.98h.02c.05-.31.11-.64.2-.98l.36-1.4h.65ZM43.07 9.65h-.66V7.94c0-.53-.2-.79-.6-.79-.2 0-.36.07-.48.22q-.18.225-.18.51v1.77h-.66V7.52c0-.26 0-.55-.02-.86h.58l.03.47h.02c.08-.15.19-.27.34-.36.18-.11.38-.17.6-.17.28 0 .51.09.7.27.23.22.34.55.34.99v1.79ZM44.24 5.29h.67v4.36h-.67zM48.82 8.13c0 .46-.13.84-.39 1.13-.27.31-.64.46-1.1.46s-.79-.15-1.05-.44-.39-.66-.39-1.1.13-.84.4-1.14.63-.44 1.09-.44.79.15 1.06.44c.25.28.38.65.38 1.1m-.69.01c0-.28-.06-.51-.18-.71q-.21-.36-.6-.36c-.39 0-.47.12-.61.36q-.18.3-.18.72c0 .42.06.51.18.71q.21.36.6.36c.39 0 .45-.12.6-.36q.18-.3.18-.72M52.03 9.65h-.6l-.05-.34h-.02c-.21.28-.5.41-.87.41-.28 0-.51-.09-.68-.27-.16-.16-.23-.37-.23-.61 0-.37.15-.64.46-.84.3-.19.73-.29 1.29-.28v-.06c0-.39-.21-.59-.62-.59-.3 0-.56.07-.78.22l-.13-.44c.28-.17.62-.26 1.02-.26.78 0 1.17.41 1.17 1.24v1.1c0 .3.02.54.04.71m-.69-1.02v-.46c-.73-.01-1.1.19-1.1.6 0 .16.04.27.13.35s.19.12.32.12a.7.7 0 0 0 .41-.14c.12-.09.2-.21.23-.35 0-.03.01-.07.01-.12M55.81 9.65h-.59l-.03-.48h-.02c-.19.37-.51.55-.96.55-.36 0-.66-.14-.9-.43-.24-.28-.36-.65-.36-1.1 0-.48.13-.88.39-1.18.25-.28.56-.42.92-.42.4 0 .68.13.84.41h.01V5.28h.66v3.56c0 .29 0 .56.02.81m-.67-1.26v-.5c0-.09 0-.16-.02-.21a.75.75 0 0 0-.24-.4.63.63 0 0 0-.44-.16c-.25 0-.44.1-.58.29-.14.2-.21.45-.21.76s.07.54.2.72c.14.2.34.3.58.3.22 0 .4-.08.53-.25.13-.15.19-.33.19-.55M61.5 8.13c0 .46-.13.84-.4 1.13-.27.31-.64.46-1.09.46s-.79-.15-1.05-.44-.39-.66-.39-1.1.13-.84.4-1.14.63-.44 1.09-.44.79.15 1.06.44c.25.28.38.65.38 1.1m-.69.01c0-.28-.06-.51-.18-.71q-.21-.36-.6-.36c-.39 0-.47.12-.61.36q-.18.3-.18.72c0 .42.06.51.18.71q.21.36.6.36c.39 0 .45-.12.6-.36.12-.2.19-.44.19-.72M65.07 9.65h-.67V7.94c0-.53-.2-.79-.6-.79-.2 0-.36.07-.48.22s-.19.32-.19.51v1.77h-.66V7.52c0-.26 0-.55-.03-.86h.59l.03.47h.02c.08-.15.19-.27.34-.36.18-.11.38-.17.6-.17.28 0 .51.09.7.27.23.22.34.55.34.99v1.79ZM69.54 7.16h-.73v1.45c0 .37.13.55.39.55.12 0 .22-.01.29-.03l.02.5c-.13.05-.3.07-.52.07-.26 0-.47-.08-.61-.24-.15-.16-.22-.43-.22-.81V7.14h-.44v-.5h.44v-.55l.65-.2v.74h.73v.5ZM73.06 9.65h-.66v-1.7c0-.54-.2-.8-.6-.8-.31 0-.52.16-.63.47q-.03.105-.03.24v1.8h-.66V5.3h.66v1.8h.01c.21-.33.51-.49.9-.49.28 0 .5.09.68.27.22.23.34.56.34 1v1.78ZM76.69 8.01c0 .12 0 .22-.02.3h-1.99c0 .3.1.52.29.68.17.14.39.21.65.21.3 0 .56-.05.81-.14l.1.46c-.28.12-.62.18-1 .18-.46 0-.83-.14-1.09-.41s-.4-.64-.4-1.1.12-.83.37-1.13q.39-.48 1.05-.48c.66 0 .76.16.98.48.18.25.27.57.27.94m-.65-.16c0-.2-.04-.37-.13-.51-.11-.18-.29-.28-.53-.28-.22 0-.39.09-.53.27-.11.14-.17.32-.2.52h1.38Z" style="fill:#fff"/></svg>