<svg id="uuid-1a2b522d-67a4-4432-a1f2-f68168b298cc" data-name="Layer 1" xmlns="http://www.w3.org/2000/svg" viewBox="0 0 150.49 147.79">
  <path d="M146.44,51.95c-.21.03-.46.33-.52.55-.03.12.3.47.48.47.22,0,.45-.23.86-.48-.4-.28-.63-.57-.82-.55M1,68.75c-.05-.23-.32-.41-.49-.61-.17.17-.44.33-.47.53-.03.18.2.4.42.77.27-.33.58-.54.55-.69M.54,81.14c-.22.08-.36.38-.54.58.19.16.37.43.56.43.18,0,.38-.27.7-.52-.34-.24-.59-.54-.72-.49M.55,74.63c-.21.01-.54.32-.55.51,0,.19.29.53.5.57.2.03.44-.25.83-.5-.36-.29-.58-.59-.78-.58M69.14.62c-.01-.21-.32-.41-.5-.61-.2.18-.52.34-.55.55-.03.2.24.44.48.85.28-.37.58-.59.57-.79M149.16,68.69c.02.2.33.46.56.52.13.03.49-.3.49-.47,0-.23-.24-.45-.49-.85-.28.38-.58.6-.56.8M149.66,74.64c-.21.04-.52.38-.5.56.02.2.35.5.56.51.19.01.41-.29.77-.59-.39-.24-.64-.51-.83-.48M52.44,3.29c-.21,0-.4.33-.6.51.18.2.35.54.55.56.21.03.46-.25.85-.5-.37-.28-.59-.59-.8-.58M81.65.04c-.22,0-.44.3-.65.46.19.22.35.55.59.63.16.05.44-.25.81-.49-.34-.29-.55-.61-.75-.61M111.34,140.02c-.09-.24-.43-.39-.66-.57-.17.22-.46.44-.46.65,0,.21.32.4.62.74.24-.38.55-.67.5-.82M97.78,3.28c-.21.03-.38.36-.56.56.2.18.39.5.6.51.2.01.42-.29.79-.57-.39-.26-.64-.54-.83-.51M75.11,0c-.23.02-.53.35-.61.61-.04.13.33.54.53.55.25.01.51-.26.95-.52-.4-.32-.65-.66-.87-.64M39.36,139.47c-.18,0-.5.38-.5.58,0,.2.35.55.53.55.25,0,.49-.29.93-.59-.46-.27-.71-.54-.96-.54M10.21,110.24c-.2,0-.59.4-.56.55.06.26.35.62.59.65.22.03.48-.32.89-.62-.41-.28-.66-.57-.92-.58M139.91,110.26c-.23.04-.5.41-.53.67-.02.15.4.52.6.51.25-.02.48-.33.88-.64-.43-.26-.72-.58-.94-.53M110.14,10.34c0,.22.45.63.6.59.27-.07.6-.39.66-.66.04-.19-.31-.47-.64-.92-.3.45-.62.72-.61.99M10.32,38.88c-.27.04-.5.39-.74.61.2.22.4.62.61.63.27.01.55-.29,1.01-.56-.41-.34-.68-.71-.87-.68M139.98,38.88c-.27.07-.46.44-.68.67.22.21.46.59.67.58.27-.02.52-.35.94-.67-.44-.29-.74-.63-.93-.58M39.39,9.67c-.23,0-.65.44-.61.6.07.28.39.65.65.69.24.03.53-.32,1.03-.67-.52-.32-.8-.63-1.07-.62M91.25,145.88c-.22.01-.62.46-.58.62.08.28.42.65.67.67.25.02.53-.35,1.01-.72-.53-.29-.83-.58-1.1-.56M58.91,145.88c-.26.02-.49.39-.74.61.22.24.42.65.68.69.24.04.55-.3,1.06-.62-.48-.35-.75-.7-1-.68M4.43,91.42c-.02-.27-.4-.51-.62-.76-.25.23-.65.42-.7.69-.05.23.29.55.6,1.06.37-.47.75-.74.73-.98M49.08,142.58c-.24.02-.66.53-.6.7.08.29.47.62.76.66.22.03.5-.36.97-.75-.53-.31-.85-.64-1.13-.62M3.84,58.3c-.29.04-.67.38-.75.66-.05.17.37.67.6.69.29.02.6-.3,1.14-.61-.49-.38-.78-.76-1-.73M14.19,114.04c-.06-.28-.49-.61-.79-.65-.2-.02-.63.45-.63.69,0,.29.37.57.76,1.12.35-.58.71-.92.65-1.17M146.45,90.68c-.24,0-.5.41-.75.65.25.26.46.66.76.74.22.06.55-.31,1.08-.64-.51-.37-.8-.74-1.09-.75M6.29,101.11c0,.24.44.7.64.68.3-.04.72-.39.77-.66.05-.26-.32-.59-.68-1.17-.38.57-.73.86-.73,1.15M136.72,113.38c-.28.04-.63.44-.7.74-.04.17.4.64.65.66.29.02.6-.31,1.19-.65-.57-.4-.88-.78-1.14-.75M143.18,100.4c-.29.04-.51.47-.76.73.27.24.52.65.81.68.27.03.57-.35,1.12-.73-.57-.35-.9-.72-1.17-.68M101.75,143.26c0-.25-.44-.73-.63-.7-.3.05-.73.39-.78.67-.05.25.32.59.68,1.15.38-.54.73-.83.73-1.12M59.61,3.83c-.04-.29-.48-.52-.74-.77-.25.27-.67.52-.69.8-.02.28.37.59.75,1.13.35-.56.72-.89.68-1.16M146.44,58.26c-.29.04-.52.46-.78.71.26.25.5.67.79.7.26.03.58-.35,1.13-.72-.56-.36-.88-.72-1.14-.69M36.15,136.09c-.25.01-.7.47-.66.65.07.3.42.7.7.74.26.04.57-.34,1.13-.72-.57-.35-.88-.68-1.17-.67M136.83,35.53c-.33.04-.62.43-.92.67.24.27.45.7.74.76.27.06.62-.28,1.2-.58-.49-.44-.78-.88-1.01-.86M113.31,136.85c.02.25.5.69.68.64.3-.07.69-.44.72-.72.03-.26-.36-.57-.76-1.12-.34.59-.66.91-.64,1.2M92.05,3.87c-.02-.29-.45-.54-.71-.81-.27.25-.71.47-.75.76-.04.27.34.61.69,1.16.39-.52.79-.83.77-1.11M12.73,36.2c.07.32.5.56.77.83.25-.26.67-.49.71-.78.04-.27-.34-.59-.68-1.12-.41.51-.85.84-.8,1.06M143.92,49.23c-.04-.29-.45-.53-.7-.79-.27.27-.69.51-.77.83-.05.22.38.55.77,1.06.35-.53.72-.85.69-1.11M6.25,49.16c.06.32.49.57.77.84.26-.26.69-.49.72-.78.03-.28-.34-.6-.69-1.14-.4.51-.84.84-.8,1.08M113.27,13.51c.06.32.49.57.76.85.26-.26.73-.51.74-.77.01-.31-.38-.64-.76-1.21-.38.55-.79.89-.74,1.13M100.28,7.14c.02.26.57.72.77.67.32-.09.69-.51.74-.83.04-.24-.4-.56-.82-1.08-.35.58-.73.93-.7,1.24M49.92,7.07c0-.27-.45-.53-.71-.8-.28.27-.71.5-.79.82-.06.24.33.59.69,1.16.41-.57.8-.88.8-1.19M36.13,12.8c-.3.06-.66.54-.69.86-.02.21.51.67.78.66.31-.01.62-.41,1.17-.83-.6-.36-.97-.76-1.25-.7M32.96,132.74c-.31.04-.78.5-.78.79,0,.28.47.75.77.79.29.03.63-.39,1.21-.79-.57-.4-.91-.82-1.2-.79M84.85,145.74c-.31.03-.58.49-.87.76.27.28.52.75.83.79.29.04.64-.37,1.22-.74-.57-.41-.9-.83-1.19-.8M116.5,133.51c.02.3.47.58.73.87.29-.27.78-.5.82-.8.04-.3-.36-.66-.74-1.25-.41.55-.83.88-.81,1.17M65.42,145.74c-.31.01-.6.45-.9.7.28.31.52.78.86.86.26.06.63-.38,1.18-.75-.52-.39-.84-.82-1.14-.81M15.95,117.27c.02.31.47.6.73.89.29-.27.77-.5.82-.81.05-.29-.35-.65-.71-1.25-.42.55-.86.87-.84,1.16M2.95,84.92c.04.31.51.56.8.84.29-.3.76-.58.82-.92.04-.25-.44-.6-.87-1.13-.37.56-.78.91-.74,1.21M3.84,64.65c-.34.05-.63.49-.94.77.26.29.51.79.8.81.33.03.7-.37,1.32-.74-.57-.43-.91-.88-1.18-.84M132.66,117.33c.03.31.51.58.79.86.3-.3.77-.57.83-.92.05-.26-.43-.61-.84-1.15-.38.56-.81.9-.78,1.2M79.2,146.46c-.06-.32-.58-.72-.93-.76-.23-.03-.74.53-.74.82,0,.33.43.66.87,1.25.41-.62.86-1.02.8-1.31M72.7,146.53c-.04-.32-.53-.76-.88-.82-.23-.04-.78.48-.8.77-.02.34.39.69.79,1.32.45-.6.92-.97.88-1.27M116.44,16.81c0,.28.55.83.76.79.35-.07.8-.48.87-.82.06-.26-.39-.64-.79-1.24-.42.58-.84.92-.84,1.26M65.34,2.99c-.32.05-.57.57-.85.88.31.28.62.77.94.78.32.01.66-.45,1.24-.9-.62-.38-1.01-.82-1.32-.77M146.55,64.65c-.35.04-.65.48-.97.75.26.3.49.82.77.85.34.03.72-.35,1.35-.71-.55-.45-.88-.92-1.15-.89M146.49,84.07c-.34.07-.76.5-.84.84-.05.21.48.77.76.78.34,0,.69-.4,1.29-.8-.58-.42-.94-.87-1.21-.82M16.72,32.16c-.32.03-.8.55-.8.86,0,.29.51.8.83.82s.67-.43,1.24-.85c-.59-.41-.95-.87-1.26-.83M32.94,17.62c.29,0,.84-.5.82-.73-.04-.35-.44-.86-.76-.92-.31-.05-.7.38-1.35.78.61.44.94.86,1.28.87M84.86,3c-.33.02-.63.52-.94.81.29.31.56.82.88.86.32.04.7-.39,1.32-.79-.59-.44-.95-.91-1.26-.88M28.88,130.33c.05.33.55.58.86.87.29-.31.78-.6.81-.94.03-.3-.44-.65-.89-1.24-.39.62-.82,1-.77,1.3M121.35,130.34c-.02-.32-.52-.84-.81-.85-.31,0-.84.47-.88.79-.04.32.4.7.81,1.3.44-.58.9-.92.88-1.24M19.12,120.59c.05.33.57.59.88.88.29-.31.79-.61.82-.95.03-.31-.44-.66-.89-1.25-.4.62-.85,1-.81,1.31M133.49,32.17c-.33.04-.76.52-.84.88-.05.22.48.77.77.79.34.02.7-.39,1.32-.77-.59-.45-.96-.92-1.26-.89M131.07,120.61c-.02-.33-.52-.62-.81-.93-.31.29-.82.55-.86.88-.04.32.39.7.78,1.31.44-.58.91-.93.89-1.25M2.91,71.89c.03.34.51.64.8.95.32-.31.83-.59.91-.95.06-.27-.43-.67-.85-1.26-.42.59-.88.94-.85,1.26M105.14,140.04c-.08-.36-.6-.63-.92-.94-.28.32-.77.64-.79.97-.02.32.46.67.9,1.25.4-.6.87-1,.81-1.29M127.02,122.96c-.34.02-.65.51-.97.79.32.33.59.84.96.92.28.06.68-.43,1.28-.85-.59-.43-.95-.88-1.27-.86M2.91,78.39c.03.34.52.63.81.94.32-.32.82-.6.9-.97.06-.27-.43-.66-.87-1.25-.42.6-.87.96-.84,1.27M10,103.29c-.22.38-.63.78-.6,1.14.03.3.58.79.88.78.32-.02.84-.53.84-.84,0-.36-.44-.73-.69-1.09-.15,0-.29,0-.44.01M45.93,139.17c-.34.04-.62.53-.92.83.32.31.6.8.97.88.26.05.64-.45,1.22-.89-.59-.41-.96-.86-1.27-.82M124.6,127.16c-.04-.37-.52-.68-.81-1.02-.32.28-.86.53-.9.84-.04.36.38.76.76,1.44.49-.61.98-.97.94-1.26M131.11,29.81c-.08-.37-.58-.65-.9-.96-.3.33-.78.64-.84,1.01-.04.28.46.64.9,1.2.41-.58.9-.97.84-1.24M146.47,77.56c-.33.03-.62.52-.92.81.31.32.59.84.95.91.28.05.67-.45,1.24-.89-.59-.41-.95-.86-1.27-.83M94.79,144.37c.24-.38.71-.8.65-1.13-.06-.34-.6-.79-.97-.84-.24-.03-.8.56-.8.88,0,.37.44.74.7,1.11.14,0,.28,0,.42-.01M11.35,45.76c-.38-.24-.79-.72-1.12-.66-.35.05-.81.59-.85.96-.03.25.55.81.87.82.36.01.74-.44,1.11-.69,0-.14,0-.29,0-.43M55.65,142.4c-.37.09-.64.6-.96.92.32.3.63.83.95.83.36,0,.72-.46,1.36-.92-.66-.43-1.07-.9-1.35-.83M19.94,28.9c-.32.02-.6.55-.9.85.32.31.61.8.98.87.29.05.67-.42,1.33-.89-.67-.42-1.05-.86-1.41-.84M141.06,45.79c-.37-.25-.77-.74-1.09-.69-.36.05-.82.56-.89.93-.04.24.52.82.85.84.36.03.75-.4,1.13-.63,0-.15,0-.3,0-.44M25.58,127.07c0,.32.59.91.84.86.37-.06.84-.53.93-.9.06-.28-.42-.68-.86-1.31-.44.62-.91.99-.9,1.35M139.09,104.39c.01.31.62.88.84.83.37-.09.84-.55.9-.92.05-.29-.44-.68-.9-1.32-.42.66-.86,1.04-.85,1.41M147.5,71.67c-.38-.22-.78-.63-1.13-.6-.3.03-.78.59-.76.89.02.32.53.85.82.85.36,0,.72-.46,1.08-.71,0-.14,0-.29-.01-.43M72.08,4.91c.24-.37.71-.78.66-1.11-.06-.35-.57-.8-.95-.86-.23-.04-.79.55-.8.87-.02.36.42.74.66,1.11.15,0,.29,0,.44,0M6.76,93.54c-.23.38-.66.76-.64,1.12.02.31.6.87.84.83.37-.06.88-.53.93-.88.04-.33-.45-.72-.7-1.08-.14,0-.29,0-.43,0M23.39,124.9c.26-.37.72-.73.72-1.1,0-.3-.54-.82-.86-.84-.31-.02-.87.47-.9.78-.03.36.39.76.62,1.14.14,0,.29,0,.43.01M8.12,55.53c-.37-.26-.75-.74-1.09-.71-.35.03-.9.56-.91.88,0,.33.52.88.87.92.33.05.74-.43,1.12-.67,0-.14,0-.28,0-.42M121.56,19.77c-.38-.23-.81-.69-1.12-.62-.35.08-.79.61-.83.98-.02.26.57.8.89.8.36,0,.71-.47,1.07-.74,0-.14-.01-.29-.02-.43M29.89,21.15c.25-.37.74-.77.69-1.11-.04-.35-.56-.81-.94-.88-.24-.04-.82.53-.83.85-.02.37.42.75.66,1.13.14,0,.28,0,.42,0M78.57,4.92c.24-.38.68-.76.66-1.13-.02-.32-.6-.89-.84-.85-.37.07-.89.53-.94.89-.05.32.44.73.69,1.09.14,0,.28,0,.42,0M128.09,26.27c-.38-.23-.8-.69-1.14-.64-.35.06-.62.61-.93.94.34.3.66.82,1.01.85.34.03.71-.47,1.07-.73,0-.14-.01-.28-.02-.42M24.13,26.54c-.04-.36-.58-.89-.91-.9-.31-.01-.86.54-.91.9-.04.33.44.73.89,1.4.47-.67.97-1.06.93-1.39M143.26,93.7c-.61-.12-1.11.33-.99.93.07.37.57.86.93.91.33.04.74-.42,1.41-.86-.64-.48-.96-.9-1.35-.98M26.43,22.38c-.36.06-.63.61-.94.95.34.3.66.82,1.02.84.34.02.71-.47,1.36-.95-.69-.43-1.11-.9-1.44-.84M144.12,55.72c-.04-.36-.53-.86-.9-.94-.61-.13-1.08.36-.98.97.07.4.51.73,1,1.37.44-.66.91-1.06.87-1.4M45.96,9.4c-.35.03-.92.55-.93.88-.02.32.51.89.86.94.34.05.75-.42,1.44-.85-.65-.49-1.03-1-1.37-.98M123.73,22.38c-.35.05-.86.61-.86.94,0,.32.57.86.91.88.35.02.72-.48,1.38-.96-.68-.44-1.1-.91-1.43-.86M55.73,6.15c-.4.07-.73.58-1.09.91.34.34.64.88,1.04.97.29.07.72-.45,1.37-.91-.62-.48-1.02-1.01-1.32-.97M105.2,10.4c-.06-.4-.58-.72-.91-1.08-.33.32-.87.61-.92.97-.05.34.42.75.85,1.42.49-.62,1.03-1.02.98-1.32M95.7,6.81c-.41-.25-.83-.71-1.21-.67-.34.03-.93.69-.87.93.1.4.61.88,1.01.94.31.05.71-.5,1.06-.78,0-.14,0-.28,0-.43M43.87,136.55c-.4-.27-.77-.69-1.2-.76-.6-.09-1.02.35-1.01,1,.01.62.38,1.1,1.01.99.43-.08.8-.5,1.2-.77,0-.16,0-.31,0-.47M107.79,137.99c.27-.4.7-.78.76-1.21.09-.66-.43-1.15-1.07-.99-.39.1-.89.66-.92,1.04-.03.36.49.77.76,1.16.15,0,.31,0,.46-.01M61.87,142.06c-.27.4-.71.78-.77,1.2-.09.65.38,1.08,1.06,1.06.69-.02,1.11-.49.99-1.13-.08-.42-.55-.77-.84-1.15-.15,0-.29,0-.44.01M87.87,142.06c-.29.38-.74.73-.82,1.15-.13.65.33,1.08,1,1.1.68.02,1.14-.41,1.04-1.06-.07-.42-.5-.79-.77-1.18-.15,0-.3,0-.44,0M14.7,107.45c-.37-.29-.75-.83-1.11-.82-.39.02-.97.48-1.09.86-.2.64.3,1.16.94,1.12.42-.03.82-.45,1.23-.7.01-.16.02-.31.03-.47M108.78,13.35c-.41-.29-.83-.81-1.24-.8-.37.01-.94.54-1.04.94-.17.63.32,1.17.98,1.1.45-.05.86-.49,1.29-.76,0-.16,0-.32.01-.49M42.44,12.32c-.28.42-.74.82-.8,1.27-.09.65.45,1.15,1.09.99.4-.1.95-.65.96-1.02.02-.41-.49-.84-.78-1.26-.16,0-.31,0-.47,0M136.53,41.49c-.3.42-.83.84-.82,1.25,0,.37.54.94.94,1.05.62.16,1.18-.33,1.1-.98-.05-.46-.5-.87-.78-1.3-.15,0-.3-.01-.45-.02M14.72,42.53c-.41-.29-.82-.81-1.22-.8-.36.01-.91.55-1.02.95-.18.64.32,1.16.96,1.1.44-.04.85-.49,1.27-.76,0-.16,0-.32,0-.48M137.95,107.32c-.44-.27-.9-.76-1.31-.72-.36.03-.92.68-.91,1.04.01.36.62.97.98.98.41,0,.83-.53,1.25-.83,0-.16-.01-.31-.01-.47M8.24,87.86c-.43-.27-.89-.76-1.3-.72-.36.03-.89.61-.97,1.02-.12.64.39,1.16,1.05,1.03.45-.09.83-.56,1.24-.85,0-.16-.01-.31-.02-.47M89.34,6.87c-.41-.3-.79-.76-1.25-.85-.63-.12-1.1.33-1.12,1-.02.71.4,1.23,1.1,1.13.45-.07.84-.54,1.26-.83,0-.15,0-.3,0-.46M144.44,87.96c-.4-.31-.78-.79-1.22-.87-.64-.11-1.18.38-1.05,1.03.08.41.59.98.95,1.02.4.04.86-.44,1.29-.7,0-.16.01-.32.02-.48M6.75,60.97c-.28.42-.74.82-.79,1.27-.08.65.45,1.14,1.09.98.4-.1.95-.64.97-1.01.02-.4-.5-.83-.78-1.24-.16,0-.33,0-.49,0M97.54,138.77c-.29.42-.76.82-.82,1.27-.1.71.46,1.13,1.16,1.09.66-.03,1.13-.5,1-1.14-.1-.45-.57-.82-.87-1.23-.16,0-.31,0-.47.01M52.2,138.77c-.3.4-.8.77-.87,1.22-.12.69.4,1.14,1.1,1.12.65,0,1.16-.42,1.04-1.08-.08-.45-.52-.84-.8-1.26-.15,0-.31,0-.46,0M141.94,62.41c.41.3.78.76,1.23.85.65.13,1.09-.34,1.1-1.02.01-.66-.36-1.18-1.04-1.08-.46.07-.86.5-1.28.76,0,.16,0,.33-.01.49M140.17,99.15c.3-.44.86-.88.84-1.3-.01-.38-.62-.96-1.04-1.04-.65-.13-1.21.38-1.1,1.08.07.45.54.84.82,1.25.16,0,.32,0,.47.01M62.35,8.34c.29-.41.75-.79.84-1.24.13-.64-.34-1.1-1.01-1.12-.71-.03-1.24.39-1.13,1.1.07.45.54.84.83,1.26.15,0,.31,0,.46,0M10.5,99.14c.29-.44.77-.86.83-1.33.08-.62-.42-1.07-1.08-1.05-.69.02-1.21.45-1.08,1.15.08.45.55.82.85,1.23.16,0,.32,0,.48,0M110.51,132.26c-.3.45-.85.92-.82,1.35.03.39.66.95,1.09,1.03.68.12,1.2-.46,1.07-1.14-.08-.45-.57-.83-.88-1.23-.16,0-.31,0-.47,0M82.91,143.05c-.45-.3-.87-.79-1.36-.87-.62-.09-1.18.42-1.04,1.06.1.44.64,1.07,1.01,1.09.44.03.91-.51,1.37-.8,0-.16,0-.32.01-.48M139.67,51.17c-.28.42-.74.82-.81,1.28-.11.7.4,1.16,1.1,1.16.71,0,1.23-.47,1.1-1.15-.09-.48-.6-.88-.93-1.31-.16,0-.32.01-.47.02M133.24,109.52c-.3.44-.77.86-.87,1.34-.13.65.37,1.08,1.04,1.11.72.03,1.26-.39,1.17-1.08-.06-.48-.55-.91-.84-1.36-.17,0-.33,0-.5-.01M10.27,53.58c.66.09,1.22-.46,1.07-1.13-.1-.42-.64-.94-1.07-1.05-.69-.17-1.08.37-1.2,1.38.32.22.73.73,1.21.8M39.64,134.85c.31-.44.81-.85.88-1.32.11-.68-.45-1.21-1.11-1.07-.43.09-1.02.66-1.04,1.04-.03.43.51.89.79,1.34.16,0,.32,0,.48,0M16.97,112.14c.31-.44.81-.85.87-1.32.09-.68-.44-1.11-1.15-1.1-.66.01-1.16.45-1.05,1.08.08.48.54.9.84,1.34.16,0,.33,0,.49,0M67.32,143.55c.45.29.88.78,1.35.83.67.07,1.21-.5,1.04-1.17-.11-.43-.7-1-1.1-1.02-.42-.02-.87.55-1.31.86,0,.16,0,.33.01.49M144.52,68.44c-.44-.3-.85-.79-1.32-.86-.68-.11-1.12.41-1.12,1.12,0,.72.46,1.22,1.13,1.11.48-.08.88-.57,1.32-.88,0-.16,0-.33,0-.49M133.76,40.81c.29-.45.77-.88.84-1.37.08-.69-.44-1.11-1.17-1.09-.73.02-1.22.48-1.07,1.17.1.48.6.87.92,1.31.16,0,.33-.01.49-.02M8.31,81.39c-.45-.29-.87-.76-1.36-.83-.64-.1-1.06.4-1.07,1.08-.01.73.44,1.24,1.11,1.14.47-.07.88-.58,1.32-.89,0-.17,0-.33-.01-.5M76.43,142.99c-.45-.3-.89-.79-1.36-.84-.65-.07-1.14.44-1.1,1.16.03.72.52,1.2,1.18,1.08.47-.09.87-.61,1.3-.93,0-.16-.01-.32-.02-.47M141.91,81.94c.45.29.87.78,1.34.83.66.07,1.13-.44,1.09-1.16-.03-.7-.49-1.21-1.17-1.08-.47.09-.86.6-1.28.93,0,.16.01.32.02.48M8.3,68.37c-.45-.28-.88-.74-1.36-.8-.7-.08-1.11.47-1.08,1.17.03.71.51,1.2,1.18,1.06.47-.09.85-.6,1.28-.93,0-.16-.01-.33-.02-.49M53.73,10.12c-.43-.32-.82-.82-1.29-.91-.67-.13-1.14.35-1.17,1.07-.03.73.46,1.22,1.1,1.17.47-.04.9-.55,1.35-.85,0-.16.01-.32.02-.47M6.77,73.83c-.31.44-.78.84-.88,1.32-.14.69.36,1.12,1.05,1.21.64.08,1.33-.54,1.18-1.18-.11-.49-.56-.89-.85-1.34-.17,0-.33,0-.5,0M142.98,73.83c-.31.44-.8.84-.89,1.32-.13.68.37,1.12,1.06,1.21.64.08,1.35-.56,1.19-1.18-.12-.49-.57-.9-.87-1.34-.16,0-.33,0-.49,0M18.07,39.25c-.44-.3-.85-.76-1.33-.86-.69-.13-1.14.38-1.16,1.07-.02.75.45,1.28,1.18,1.16.47-.08.88-.58,1.31-.9,0-.16,0-.32,0-.48M67.27,7.27c.43.32.83.83,1.3.93.67.14,1.14-.35,1.22-1.05.07-.65-.55-1.39-1.16-1.24-.49.12-.9.58-1.35.89,0,.16,0,.32-.01.48M112.13,16.54c-.45-.31-.86-.76-1.35-.89-.62-.16-1.24.56-1.17,1.21.07.72.55,1.2,1.21,1.07.48-.09.88-.6,1.32-.93,0-.16,0-.31,0-.47M19.95,112.89c-.7.01-1.15.47-1.16,1.17,0,.75.45,1.29,1.2,1.17.48-.08.9-.57,1.23-.8-.13-1.06-.51-1.56-1.27-1.54M38.09,17.01c.43.33.83.84,1.3.93.67.13,1.13-.37,1.22-1.06.09-.64-.55-1.36-1.17-1.21-.49.12-.9.57-1.35.87,0,.16,0,.32,0,.48M82.93,6.83c-.44-.32-.85-.78-1.34-.92-.6-.17-1.23.57-1.17,1.22.06.72.52,1.21,1.2,1.07.48-.09.89-.59,1.32-.91,0-.16,0-.31,0-.47M75.1,5.87c-.73.02-1.21.49-1.19,1.24.01.69.43,1.14,1.15,1.15.75,0,1.16-.44,1.26-1.19-.08-.73-.48-1.22-1.22-1.2M98.01,11.66c.32-.44.84-.85.92-1.33.11-.67-.39-1.16-1.11-1.17-.71,0-1.25.42-1.15,1.12.07.49.56.91.86,1.37.16,0,.31,0,.47,0M115.21,130.3c.01-.7-.43-1.15-1.13-1.18-.74-.03-1.23.38-1.26,1.14-.02.75.42,1.17,1.15,1.25.79-.04,1.22-.49,1.23-1.21M130.19,112.89c-.72.02-1.21.48-1.18,1.23.03.73.49,1.18,1.25,1.16.76-.02,1.13-.49,1.19-1.21-.08-.77-.54-1.2-1.26-1.18M37.37,130.25c-.03-.68-.44-1.14-1.15-1.15-.76,0-1.2.47-1.21,1.2,0,.74.46,1.14,1.21,1.21.74-.09,1.18-.52,1.15-1.26M21.18,36.24c-.02-.74-.48-1.21-1.24-1.19-.75.02-1.2.49-1.19,1.24.01.76.5,1.13,1.21,1.21.77-.1,1.23-.5,1.21-1.26M37.42,20.11c0-.74-.4-1.2-1.15-1.28-.69-.08-1.34.52-1.32,1.22.03.76.48,1.14,1.13,1.24.72.02,1.34-.52,1.33-1.17M92.54,140.14c.07-.7-.48-1.34-1.2-1.33-.75,0-1.22.41-1.25,1.16-.04.74.39,1.17,1.04,1.29.74.05,1.35-.47,1.41-1.12M112.8,20c0,.76.42,1.19,1.15,1.26.67.07,1.34-.57,1.29-1.24-.05-.73-.47-1.15-1.13-1.21-.77,0-1.32.51-1.32,1.19M50.4,136.84c.04-.67-.59-1.33-1.26-1.28-.74.05-1.19.49-1.18,1.23,0,.74.43,1.16,1.1,1.23.75.01,1.31-.51,1.35-1.18M34.18,127.06c.03-.69-.62-1.33-1.3-1.25-.72.09-1.18.5-1.15,1.27.02.78.5,1.12,1.22,1.2.75-.09,1.19-.48,1.23-1.23M57.66,140c-.01.75.41,1.19,1.16,1.26.71.06,1.31-.52,1.28-1.24-.03-.76-.48-1.13-1.23-1.22-.72.08-1.2.44-1.21,1.2M102.28,136.78c.02-.71-.58-1.3-1.28-1.24-.74.06-1.16.49-1.2,1.23-.03.7.57,1.27,1.38,1.24.64-.09,1.08-.47,1.1-1.23M130.26,35c-.68-.01-1.34.62-1.27,1.29.08.72.51,1.2,1.26,1.18.75,0,1.13-.5,1.22-1.18,0-.69-.56-1.28-1.21-1.3M14.71,101.17c.05-.77-.4-1.21-1.14-1.3-.68-.09-1.37.55-1.34,1.23.04.74.47,1.16,1.22,1.27.73-.07,1.2-.45,1.25-1.21M21.97,117.32c-.04.69.6,1.3,1.31,1.24.76-.06,1.17-.52,1.16-1.28,0-.78-.51-1.13-1.23-1.21-.75.09-1.19.49-1.24,1.24M91.27,9.06c-.76.04-1.2.48-1.21,1.22-.01.8.45,1.26,1.25,1.3.69.04,1.29-.58,1.28-1.28,0-.71-.58-1.28-1.31-1.25M117.21,125.8c-.73.07-1.17.5-1.2,1.25-.04.69.6,1.3,1.3,1.24.74-.06,1.14-.5,1.21-1.16,0-.77-.62-1.41-1.3-1.34M128.23,117.34c.02-.75-.46-1.18-1.21-1.24-.7-.05-1.34.58-1.28,1.28.06.75.51,1.14,1.25,1.21.77-.07,1.21-.52,1.24-1.24M10.13,92.63c.71.06,1.33-.48,1.37-1.19.04-.71-.53-1.31-1.25-1.29-.76.02-1.16.44-1.26,1.09-.03.76.47,1.34,1.15,1.39M23.14,31.76c-.73.08-1.16.5-1.19,1.26-.02.7.6,1.3,1.28,1.29.7-.01,1.26-.62,1.24-1.33-.02-.72-.62-1.29-1.33-1.21M136.75,99.85c-.66-.05-1.34.6-1.3,1.27.04.74.47,1.18,1.22,1.24.7.05,1.3-.55,1.3-1.26-.08-.74-.47-1.19-1.22-1.25M26.41,119.3c-.72.08-1.17.5-1.2,1.25-.03.72.56,1.32,1.26,1.27.77-.06,1.22-.49,1.26-1.19-.02-.79-.65-1.41-1.32-1.33M136.69,47.96c-.73.06-1.17.49-1.23,1.23-.06.68.58,1.31,1.25,1.32.7,0,1.29-.59,1.29-1.28,0-.68-.63-1.32-1.31-1.26M99.77,13.6c.02.72.61,1.26,1.34,1.21.77-.05,1.17-.5,1.2-1.25.03-.72-.57-1.3-1.28-1.29-.71.01-1.28.61-1.26,1.32M29.67,122.56c-.74.05-1.17.47-1.22,1.22-.05.69.56,1.3,1.24,1.31.71,0,1.26-.56,1.26-1.28,0-.73-.57-1.29-1.28-1.24M138.7,91.3c-.07.7.51,1.36,1.21,1.34.74-.02,1.21-.42,1.3-1.16.09-.68-.52-1.32-1.27-1.35-.68.07-1.17.41-1.24,1.17M50.44,13.54c0-.68-.63-1.3-1.32-1.25-.75.05-1.17.5-1.23,1.23-.06.7.54,1.28,1.26,1.29.72,0,1.3-.57,1.29-1.26M34.22,23.24c-.03-.7-.65-1.29-1.35-1.21-.74.08-1.16.51-1.16,1.28,0,.75.54,1.28,1.28,1.26.72-.02,1.27-.61,1.24-1.33M10.24,57.7c-.71,0-1.3.57-1.26,1.28.04.74.46,1.18,1.21,1.24.7.06,1.32-.54,1.33-1.23.01-.69-.57-1.28-1.28-1.29M13.51,47.94c-.65-.01-1.32.63-1.28,1.3.04.74.47,1.18,1.21,1.25.69.07,1.31-.53,1.33-1.22.02-.68-.58-1.31-1.26-1.33M138.69,59c.05.75.49,1.17,1.22,1.23.68.06,1.31-.58,1.32-1.26,0-.67-.61-1.28-1.3-1.28-.7,0-1.29.6-1.24,1.31M123.77,119.3c-.69,0-1.31.59-1.29,1.28.03.75.46,1.18,1.19,1.26.68.07,1.32-.54,1.34-1.22.02-.68-.57-1.31-1.25-1.32M120.61,122.55c-.76-.04-1.2.38-1.34,1.09-.13.66.43,1.37,1.1,1.45.67.08,1.34-.47,1.42-1.15.07-.68-.48-1.35-1.17-1.39M118.52,23.31c.02-.8-.46-1.27-1.24-1.3-.79-.02-1.29.46-1.31,1.24-.02.77.47,1.21,1.25,1.32.76-.08,1.27-.46,1.29-1.26M29.66,27.81c.79-.01,1.27-.43,1.31-1.25.03-.83-.46-1.25-1.23-1.34-.67-.07-1.31.57-1.34,1.26-.02.69.56,1.34,1.26,1.33M58.89,9.06c-.76,0-1.19.44-1.28,1.17-.09.69.49,1.32,1.2,1.36.7.04,1.31-.51,1.34-1.22.03-.71-.53-1.3-1.26-1.3M127.07,34.3c.68-.05,1.3-.73,1.21-1.38-.1-.73-.57-1.15-1.31-1.19-.68-.03-1.28.64-1.26,1.33.03.7.67,1.29,1.35,1.24M26.44,28.48c-.79.06-1.26.51-1.24,1.32.02.81.51,1.23,1.31,1.26.71.02,1.27-.6,1.26-1.32-.02-.71-.61-1.31-1.32-1.26M120.55,25.22c-.68-.08-1.41.65-1.34,1.34.07.76.5,1.26,1.31,1.25.8-.01,1.2-.49,1.3-1.24-.07-.81-.51-1.26-1.27-1.35M123.77,28.49c-.75-.03-1.37.6-1.31,1.34.06.79.54,1.23,1.32,1.22.81,0,1.18-.52,1.27-1.27-.09-.77-.47-1.26-1.28-1.29M86.15,140.04c.05-.72-.65-1.37-1.39-1.3-.79.08-1.25.54-1.22,1.34.03.8.53,1.2,1.3,1.27.8-.09,1.26-.54,1.31-1.31M44.58,133.53c-.02.72.62,1.41,1.33,1.37.77-.05,1.24-.49,1.32-1.27.08-.76-.5-1.37-1.27-1.4-.75-.03-1.37.56-1.39,1.31M65.44,138.72c-.74-.07-1.41.55-1.39,1.29.02.8.48,1.25,1.25,1.34.73.08,1.38-.56,1.39-1.39-.05-.7-.47-1.16-1.25-1.24M16.74,103.01c-.73,0-1.34.61-1.34,1.35,0,.75.59,1.35,1.33,1.35.74,0,1.35-.6,1.35-1.34,0-.71-.62-1.35-1.34-1.36M139.95,83.55c-.73,0-1.32.62-1.3,1.38.02.76.63,1.36,1.38,1.3.78-.07,1.2-.53,1.27-1.19,0-.85-.63-1.48-1.35-1.49M11.58,85.01c.08-.77-.57-1.48-1.35-1.44-.78.04-1.26.45-1.29,1.26-.03.77.53,1.38,1.35,1.41.68-.07,1.2-.43,1.29-1.23M138.63,65.39c-.03.76.53,1.38,1.27,1.41.73.02,1.37-.57,1.4-1.3.02-.75-.56-1.39-1.28-1.4-.76-.02-1.36.54-1.38,1.29M10.28,64.11c-.76.04-1.27.42-1.35,1.23-.07.77.48,1.39,1.23,1.44.75.04,1.39-.54,1.41-1.28.03-.74-.58-1.42-1.3-1.39M73.23,140.02c0-.72-.66-1.36-1.37-1.36-.72,0-1.35.65-1.35,1.39,0,.73.65,1.37,1.37,1.36.73-.01,1.35-.65,1.35-1.38M66.72,10.32c0-.74-.58-1.36-1.32-1.38-.76-.02-1.41.63-1.39,1.41.02.74.62,1.32,1.37,1.31.75,0,1.33-.59,1.34-1.34M133.52,102.99c-.74-.03-1.37.56-1.4,1.31-.03.75.56,1.37,1.31,1.4.75.02,1.38-.57,1.4-1.31.02-.75-.56-1.37-1.31-1.4M79.71,140c-.01-.73-.65-1.34-1.38-1.33-.74.01-1.34.64-1.33,1.38.01.74.65,1.35,1.38,1.33.74-.02,1.35-.65,1.33-1.38M16.76,44.65c-.77-.02-1.38.56-1.39,1.31-.02.74.58,1.36,1.33,1.38.75.01,1.38-.58,1.4-1.32.02-.74-.58-1.36-1.33-1.37M105.62,133.54c0-.73-.6-1.35-1.34-1.35s-1.34.65-1.35,1.37c0,.71.64,1.36,1.35,1.35.71,0,1.33-.63,1.34-1.37M84.84,8.95c-.72,0-1.37.63-1.37,1.35,0,.72.63,1.37,1.35,1.37.71,0,1.37-.64,1.37-1.35,0-.71-.64-1.37-1.36-1.37M132.1,45.99c0,.79.63,1.39,1.43,1.36.75-.02,1.32-.61,1.33-1.36,0-.79-.63-1.39-1.42-1.37-.76.02-1.33.61-1.33,1.36M8.9,71.89c-.02.78.53,1.38,1.29,1.41.79.03,1.43-.6,1.43-1.39,0-.76-.6-1.36-1.35-1.36-.74,0-1.34.59-1.36,1.35M104.28,18.18c.83-.02,1.3-.51,1.38-1.31.08-.77-.57-1.43-1.35-1.45-.72-.01-1.36.59-1.39,1.32-.04.76.6,1.46,1.36,1.44M10.27,77.02c-.76,0-1.39.65-1.37,1.43.02.74.62,1.36,1.34,1.36.75,0,1.39-.66,1.37-1.44-.02-.74-.63-1.35-1.34-1.35M45.91,15.41c-.77,0-1.41.7-1.36,1.47.05.74.7,1.32,1.43,1.29.75-.03,1.33-.66,1.31-1.41-.02-.74-.65-1.35-1.39-1.35M93.16,136.79c0,.73.62,1.34,1.36,1.37.78.02,1.44-.62,1.43-1.39,0-.72-.64-1.35-1.36-1.37-.78-.02-1.43.62-1.43,1.4M141.33,71.89c-.02-.76-.61-1.34-1.35-1.34-.8,0-1.39.62-1.38,1.43.02.76.61,1.35,1.35,1.35.78,0,1.4-.65,1.38-1.43M136.7,96.02c.78,0,1.43-.62,1.4-1.4-.03-.83-.51-1.29-1.33-1.36-.77-.06-1.44.57-1.46,1.34-.02.76.62,1.42,1.39,1.43M55.72,135.42c-.79-.04-1.45.57-1.46,1.35,0,.78.63,1.42,1.41,1.41.74,0,1.34-.61,1.36-1.36.02-.73-.57-1.36-1.31-1.4M139.99,77.03c-.79,0-1.41.62-1.39,1.41.02.79.68,1.42,1.45,1.37.73-.04,1.3-.68,1.29-1.42-.02-.76-.59-1.35-1.34-1.36M136.68,54.31c-.82.06-1.31.53-1.38,1.35-.06.74.63,1.44,1.38,1.46.78.02,1.43-.62,1.43-1.4,0-.77-.68-1.47-1.43-1.41M14.87,94.71c.02-.83-.43-1.33-1.24-1.45-.77-.12-1.47.48-1.54,1.25-.07.76.52,1.46,1.29,1.52.76.06,1.48-.56,1.49-1.32M12.07,55.69c-.01.71.61,1.37,1.33,1.42.79.05,1.46-.54,1.49-1.33.03-.76-.61-1.47-1.36-1.49-.74-.03-1.44.65-1.46,1.41M70.45,10.35c.02.73.64,1.34,1.37,1.36.79.02,1.44-.6,1.44-1.38,0-.78-.64-1.43-1.41-1.43-.76,0-1.42.69-1.4,1.45M42.66,128.87c-.77.02-1.42.68-1.41,1.44,0,.8.64,1.41,1.44,1.39.79-.01,1.43-.66,1.42-1.43-.01-.77-.68-1.42-1.45-1.4M78.32,8.91c-.76.01-1.41.7-1.38,1.46.03.73.66,1.34,1.39,1.35.78,0,1.43-.63,1.43-1.41,0-.78-.65-1.42-1.43-1.4M57.07,13.53c0-.75-.69-1.4-1.45-1.38-.78.01-1.4.65-1.39,1.43.01.76.68,1.41,1.44,1.4.74-.01,1.41-.71,1.4-1.45M108.97,130.29c0-.77-.67-1.43-1.43-1.42-.78.01-1.42.66-1.42,1.43,0,.79.63,1.42,1.42,1.41.78,0,1.44-.66,1.44-1.42M94.53,12.14c-.82.01-1.45.7-1.39,1.52.05.76.74,1.38,1.49,1.34.74-.04,1.38-.75,1.36-1.49-.03-.76-.69-1.39-1.45-1.38M21.39,107.59c0-.78-.64-1.41-1.42-1.4-.77,0-1.43.66-1.43,1.42,0,.75.69,1.42,1.44,1.41.77,0,1.41-.66,1.41-1.43M131.69,107.63c.02-.79-.69-1.49-1.5-1.47-.78.02-1.4.67-1.39,1.46.01.79.65,1.42,1.42,1.43.75,0,1.44-.66,1.46-1.41M20.02,41.29c-.8-.03-1.5.66-1.5,1.45,0,.74.67,1.43,1.4,1.46.78.03,1.48-.66,1.49-1.46,0-.78-.62-1.43-1.39-1.45M44.14,20.07c0-.8-.67-1.47-1.49-1.47-.8,0-1.4.61-1.4,1.41,0,.82.66,1.49,1.47,1.48.75-.01,1.42-.68,1.43-1.43M107.5,18.59c-.81,0-1.44.68-1.41,1.51.03.78.65,1.39,1.42,1.41.8.02,1.49-.66,1.48-1.46,0-.79-.69-1.46-1.5-1.46M130.18,41.28c-.78.03-1.4.68-1.4,1.46s.63,1.43,1.41,1.45c.79.02,1.53-.68,1.52-1.46,0-.79-.74-1.48-1.53-1.45M63.6,136.82c.02-.81-.64-1.49-1.45-1.5-.81-.01-1.51.64-1.53,1.43-.02.77.67,1.48,1.47,1.5.82.02,1.49-.61,1.51-1.43M21.74,110.77c-.04.83.58,1.51,1.41,1.55.81.04,1.51-.6,1.55-1.41.03-.79-.63-1.53-1.41-1.56-.79-.04-1.5.63-1.54,1.43M88.03,135.33c-.81.02-1.41.62-1.43,1.42-.02.83.63,1.5,1.45,1.51.84,0,1.49-.64,1.48-1.48,0-.83-.67-1.48-1.5-1.45M39.38,125.59c-.8.03-1.47.72-1.44,1.52.03.78.74,1.45,1.53,1.43.8-.02,1.45-.71,1.42-1.52-.02-.81-.7-1.46-1.51-1.43M97.68,135.01c.88.07,1.57-.55,1.6-1.43.03-.84-.57-1.5-1.4-1.53-.82-.04-1.51.59-1.56,1.39-.05.82.55,1.51,1.37,1.58M112.23,127.02c-.02-.82-.7-1.47-1.51-1.45-.8.02-1.46.72-1.44,1.52.02.8.73,1.48,1.52,1.46.79-.02,1.45-.73,1.43-1.54M88.13,12.07c-.89-.03-1.56.6-1.56,1.48,0,.83.61,1.47,1.44,1.5.83.03,1.58-.67,1.59-1.48,0-.79-.66-1.47-1.47-1.5M52.27,135.03c.82.06,1.54-.52,1.63-1.32.08-.78-.53-1.54-1.32-1.63-.85-.1-1.6.53-1.68,1.38-.07.8.56,1.52,1.37,1.58M13.49,86.65c-.81,0-1.49.68-1.49,1.49,0,.8.68,1.48,1.49,1.48.83,0,1.49-.65,1.49-1.47,0-.79-.71-1.5-1.49-1.5M24.73,39.53c.01-.83-.73-1.57-1.56-1.54-.82.03-1.46.71-1.45,1.53.02.82.68,1.48,1.5,1.48s1.5-.65,1.51-1.47M14.99,62.18c-.01-.84-.76-1.53-1.6-1.48-.81.05-1.43.75-1.4,1.57.04.8.75,1.46,1.54,1.44.79-.03,1.47-.74,1.46-1.53M135.22,88.08c-.03.8.61,1.51,1.41,1.55.85.05,1.58-.62,1.59-1.47,0-.79-.67-1.49-1.46-1.52-.8-.02-1.5.63-1.53,1.43M60.6,13.59c.02.8.69,1.46,1.5,1.48.84.02,1.55-.69,1.54-1.53-.01-.82-.67-1.47-1.49-1.47-.87,0-1.56.68-1.55,1.53M40.92,23.33c.01-.86-.68-1.58-1.51-1.57-.76.01-1.5.74-1.52,1.49-.02.81.72,1.55,1.55,1.54.84,0,1.46-.63,1.48-1.47M138.22,62.26c.04-.85-.66-1.56-1.52-1.55-.84.01-1.48.65-1.48,1.49,0,.82.65,1.5,1.46,1.51.81.02,1.51-.64,1.54-1.45M15.24,97.85c-.01.84.61,1.5,1.44,1.53.87.03,1.58-.66,1.56-1.52,0-.79-.72-1.49-1.51-1.49-.79,0-1.49.68-1.5,1.49M110.76,21.75c-.76,0-1.49.72-1.52,1.48-.03.82.69,1.55,1.53,1.55.84,0,1.47-.61,1.49-1.45.02-.86-.68-1.59-1.5-1.58M36.09,122.3c-.81.05-1.45.75-1.42,1.55.03.8.73,1.49,1.51,1.49.83,0,1.55-.74,1.52-1.58-.02-.84-.77-1.52-1.61-1.47M52.37,15.25c-.81.02-1.53.78-1.5,1.6.03.81.7,1.45,1.52,1.46.86,0,1.55-.67,1.54-1.53,0-.84-.73-1.55-1.56-1.53M15.23,52.47c0,.89.7,1.56,1.56,1.52.78-.03,1.49-.76,1.48-1.53-.01-.84-.75-1.54-1.59-1.51-.84.03-1.45.67-1.45,1.52M126.97,109.33c-.81,0-1.54.79-1.49,1.6.05.79.77,1.43,1.56,1.41.79-.03,1.45-.73,1.43-1.53-.02-.78-.73-1.48-1.5-1.47M126.93,37.98c-.78.03-1.46.73-1.47,1.51,0,.82.73,1.52,1.57,1.49.83-.03,1.45-.67,1.45-1.5,0-.85-.72-1.54-1.56-1.51M97.73,15.27c-.8.04-1.46.73-1.46,1.53,0,.86.68,1.53,1.56,1.52.88-.01,1.53-.69,1.5-1.56-.02-.84-.77-1.53-1.6-1.49M123.84,112.58c-.87-.04-1.58.6-1.61,1.45-.04.84.64,1.58,1.47,1.6.83.02,1.56-.69,1.57-1.52.01-.81-.62-1.49-1.43-1.53M83.13,136.77c0-.82-.75-1.53-1.59-1.5-.82.02-1.46.67-1.47,1.5,0,.86.68,1.57,1.51,1.58.8,0,1.55-.76,1.54-1.57M134.99,52.49c0-.86-.7-1.55-1.56-1.53-.81.02-1.48.7-1.48,1.51,0,.85.71,1.56,1.56,1.54.81-.02,1.48-.7,1.48-1.51M134.98,97.91c.02-.85-.68-1.57-1.51-1.56-.83,0-1.54.74-1.51,1.58.03.8.72,1.45,1.52,1.45.81,0,1.48-.65,1.5-1.47M13.46,67.16c-.86.01-1.53.7-1.52,1.56,0,.85.72,1.54,1.57,1.52.84-.02,1.52-.73,1.52-1.58,0-.86-.69-1.51-1.57-1.5M113.98,122.29c-.81.02-1.48.69-1.5,1.49-.02.83.69,1.57,1.52,1.58.85,0,1.55-.7,1.54-1.55,0-.85-.72-1.54-1.56-1.52M123.77,34.71c-.85-.03-1.56.65-1.57,1.51,0,.87.65,1.55,1.51,1.58.84.02,1.57-.67,1.58-1.51.01-.83-.69-1.56-1.52-1.59M24.92,114.04c-.03.82.69,1.56,1.51,1.57.85,0,1.55-.68,1.55-1.53,0-.82-.64-1.49-1.44-1.52-.83-.03-1.59.66-1.61,1.48M68.65,135.25c-.85-.02-1.57.67-1.57,1.52,0,.78.66,1.5,1.45,1.56.82.05,1.59-.65,1.62-1.48.03-.86-.63-1.57-1.49-1.59M120.43,115.79c-.83.04-1.5.77-1.48,1.61.02.84.75,1.5,1.6,1.46.85-.03,1.48-.72,1.46-1.6-.02-.86-.73-1.51-1.58-1.47M36.19,24.99c-.85,0-1.55.69-1.55,1.54,0,.84.69,1.53,1.54,1.54.85,0,1.55-.69,1.56-1.52,0-.83-.71-1.55-1.54-1.55M113.97,24.97c-.85.02-1.53.73-1.51,1.59.02.87.7,1.5,1.59,1.49.88-.02,1.54-.69,1.51-1.56-.02-.86-.73-1.53-1.59-1.51M115.71,120.56c0,.82.72,1.54,1.55,1.54.83,0,1.55-.71,1.55-1.54s-.68-1.52-1.54-1.52c-.86,0-1.55.67-1.55,1.52M31.4,120.61c.02.81.69,1.49,1.49,1.51.85.03,1.57-.66,1.58-1.52.02-.86-.67-1.55-1.54-1.54-.87,0-1.56.7-1.54,1.55M26.43,37.8c.83.02,1.56-.68,1.57-1.51.01-.82-.68-1.55-1.52-1.57-.83-.03-1.57.68-1.57,1.51,0,.83.69,1.55,1.52,1.58M135.19,81.66c0,.86.7,1.56,1.53,1.55.85,0,1.54-.71,1.54-1.56,0-.83-.71-1.54-1.56-1.54-.86,0-1.52.67-1.52,1.55M28.17,117.35c0,.81.65,1.48,1.48,1.52.85.03,1.57-.65,1.6-1.51.03-.85-.66-1.56-1.52-1.56-.86,0-1.54.68-1.55,1.55M120.48,31.46c-.86.01-1.53.7-1.53,1.55,0,.89.75,1.6,1.64,1.56.86-.04,1.49-.73,1.46-1.61-.02-.87-.7-1.52-1.57-1.5M136.76,67.13c-.9-.02-1.59.66-1.59,1.58,0,.86.68,1.52,1.54,1.52.85,0,1.53-.68,1.54-1.54.02-.86-.64-1.54-1.5-1.57M13.45,80.09c-.84.02-1.51.74-1.5,1.59.01.85.72,1.52,1.58,1.5.86-.02,1.53-.72,1.5-1.58-.02-.82-.78-1.53-1.59-1.52M117.24,28.2c-.88.01-1.6.8-1.55,1.67.05.84.8,1.52,1.64,1.47.85-.04,1.52-.77,1.5-1.62-.03-.84-.75-1.54-1.59-1.53M81.61,12c-.87-.01-1.62.75-1.59,1.62.03.83.77,1.52,1.6,1.5.83-.02,1.55-.74,1.54-1.56,0-.82-.73-1.55-1.55-1.56M75.09,135.22c-.85.02-1.53.73-1.53,1.57,0,.85.7,1.57,1.52,1.57.85,0,1.62-.78,1.6-1.62-.02-.82-.78-1.54-1.59-1.52M34.52,29.87c.07-.85-.67-1.65-1.54-1.66-.83-.02-1.56.68-1.59,1.51-.03.82.66,1.57,1.49,1.61.83.04,1.58-.63,1.64-1.46M68.61,11.98c-.84,0-1.55.71-1.56,1.56-.01.88.74,1.62,1.62,1.59.85-.03,1.52-.73,1.5-1.6-.01-.86-.7-1.55-1.56-1.55M15.05,75.21c.02-.89-.71-1.63-1.59-1.61-.83.02-1.53.74-1.53,1.58,0,.84.72,1.56,1.55,1.56.85,0,1.55-.68,1.57-1.53M29.69,31.45c-.88,0-1.6.77-1.55,1.65.05.85.78,1.5,1.63,1.46.86-.04,1.53-.74,1.5-1.59-.02-.83-.74-1.52-1.59-1.52M135.17,75.11c-.03.91.66,1.64,1.54,1.64.85,0,1.54-.67,1.57-1.52.03-.88-.69-1.64-1.55-1.65-.82,0-1.53.69-1.56,1.53M131.81,101.1c0-.85-.66-1.55-1.51-1.59-.9-.04-1.64.65-1.65,1.55-.02.91.67,1.63,1.56,1.64.89.01,1.59-.7,1.6-1.6M130.23,47.62c-.9,0-1.62.72-1.62,1.61,0,.9.71,1.6,1.62,1.6.91,0,1.61-.69,1.61-1.6,0-.89-.72-1.61-1.61-1.61M50.74,130.29c0-.83-.7-1.55-1.52-1.59-.84-.04-1.62.71-1.64,1.58-.01.9.68,1.62,1.57,1.63.88,0,1.6-.72,1.59-1.61M76.7,13.66c.05-.83-.58-1.6-1.4-1.7-.86-.1-1.68.57-1.76,1.43-.08.88.57,1.65,1.46,1.74.87.08,1.65-.59,1.71-1.48M58.95,131.95c-.9-.04-1.63.64-1.65,1.53-.02.9.64,1.62,1.54,1.66.87.04,1.65-.68,1.67-1.53.02-.87-.69-1.62-1.56-1.66M21.57,101.15c0-.89-.71-1.62-1.6-1.62-.84,0-1.54.67-1.59,1.53-.05.88.66,1.64,1.54,1.67.89.03,1.64-.69,1.65-1.57M101.01,128.68c-.85.02-1.59.81-1.56,1.67.03.83.74,1.52,1.57,1.53.87.01,1.61-.73,1.61-1.6,0-.87-.76-1.62-1.62-1.6M19.93,47.61c-.88.02-1.58.77-1.56,1.66.02.9.74,1.57,1.65,1.55.9-.02,1.59-.74,1.56-1.64-.03-.9-.76-1.59-1.64-1.57M16.74,89.78c-.88,0-1.64.72-1.65,1.59-.01.86.74,1.61,1.62,1.62.9.01,1.62-.69,1.63-1.59,0-.9-.7-1.62-1.6-1.62M89.71,133.47c-.02.88.66,1.62,1.55,1.67.89.05,1.64-.64,1.66-1.53.03-.89-.65-1.62-1.54-1.67-.88-.05-1.64.66-1.67,1.53M133.58,89.79c-.88-.06-1.68.63-1.75,1.49-.06.85.65,1.66,1.52,1.73.88.07,1.66-.61,1.73-1.5.07-.9-.6-1.66-1.49-1.72M15.08,58.95c0,.89.81,1.66,1.72,1.62.89-.04,1.57-.77,1.54-1.67-.03-.88-.77-1.6-1.64-1.58-.85.02-1.62.79-1.62,1.63M50.79,20.11c.04-.93-.7-1.68-1.63-1.67-.92,0-1.59.67-1.59,1.59,0,.91.67,1.62,1.55,1.64.86.02,1.64-.7,1.67-1.55M135.1,58.99c.02-.87-.71-1.63-1.58-1.66-.89-.03-1.71.77-1.7,1.66.01.85.79,1.6,1.64,1.6.87,0,1.62-.73,1.64-1.6M60.53,16.8c0-.86-.74-1.63-1.6-1.64-.92-.02-1.71.74-1.71,1.64,0,.86.74,1.62,1.6,1.65.9.02,1.7-.75,1.7-1.65M91.33,15.16c-.94,0-1.67.75-1.65,1.67.01.87.75,1.61,1.61,1.62.92,0,1.66-.75,1.65-1.68-.02-.9-.72-1.61-1.6-1.61M101.09,18.45c-.91-.02-1.62.64-1.65,1.54-.03.94.69,1.69,1.62,1.68.89,0,1.6-.72,1.61-1.6,0-.89-.69-1.6-1.58-1.62M105.94,126.97c-.04-.87-.8-1.58-1.67-1.57-.94,0-1.66.74-1.65,1.68.01.95.74,1.63,1.7,1.61.94-.02,1.65-.79,1.61-1.72M45.84,125.4c-.92.04-1.65.83-1.6,1.74.05.87.8,1.56,1.69,1.56.92,0,1.68-.79,1.66-1.69-.03-.92-.82-1.65-1.74-1.61M21.55,104.41c.03.89.86,1.67,1.74,1.63.89-.04,1.57-.77,1.57-1.67,0-.94-.75-1.69-1.67-1.67-.93.02-1.67.79-1.64,1.71M102.61,23.16c-.06.96.68,1.79,1.62,1.82.92.03,1.69-.68,1.73-1.6.04-.93-.66-1.7-1.57-1.75-.95-.05-1.71.61-1.77,1.54M86.5,133.57c0-.93-.73-1.68-1.65-1.69-.94,0-1.68.72-1.68,1.65,0,.94.7,1.67,1.65,1.68.94.01,1.69-.72,1.69-1.64M23.25,44.32c-.93-.02-1.7.7-1.72,1.63-.02.92.71,1.7,1.63,1.73.91.03,1.69-.71,1.71-1.64.02-.94-.68-1.69-1.62-1.72M128.66,104.32c-.03-.9-.82-1.66-1.72-1.64-.91.02-1.65.79-1.63,1.71.02.9.83,1.67,1.71,1.64.92-.03,1.66-.81,1.63-1.72M65.37,131.87c-.93,0-1.7.76-1.69,1.67.01.93.76,1.67,1.69,1.67.93,0,1.69-.76,1.68-1.67-.02-.94-.75-1.67-1.68-1.67M15.04,84.82c-.03.93.67,1.69,1.59,1.74.96.05,1.8-.72,1.79-1.64,0-.92-.75-1.68-1.66-1.7-.93-.02-1.7.7-1.73,1.61M44.21,23.25c-.02.93.81,1.74,1.75,1.72.93-.02,1.65-.77,1.64-1.7-.01-.92-.77-1.67-1.68-1.67-.91,0-1.69.74-1.71,1.65M83.13,16.86c.03.92.79,1.65,1.72,1.64.91,0,1.68-.77,1.69-1.67.01-.95-.79-1.76-1.73-1.75-.94,0-1.72.83-1.68,1.79M127.01,44.3c-.91-.02-1.68.72-1.71,1.64-.03.94.77,1.77,1.7,1.76.88-.01,1.67-.81,1.68-1.7,0-.89-.77-1.68-1.67-1.7M133.53,83.22c-.92-.03-1.72.7-1.74,1.6-.03.99.7,1.75,1.69,1.75.93,0,1.7-.74,1.71-1.64.01-.9-.75-1.68-1.66-1.71M16.7,63.75c-.92.02-1.67.79-1.67,1.7,0,.95.83,1.74,1.78,1.7.9-.04,1.65-.85,1.62-1.76-.03-.91-.82-1.66-1.73-1.64M135.18,65.5c.04-.89-.72-1.71-1.62-1.76-.96-.05-1.78.72-1.79,1.68-.01.9.76,1.69,1.66,1.71.9.02,1.71-.74,1.75-1.64M71.91,131.84c-.95-.03-1.75.75-1.77,1.7-.01.89.76,1.68,1.66,1.71.94.03,1.75-.76,1.76-1.72.01-.91-.73-1.67-1.66-1.7M42.6,125.53c.89.05,1.7-.68,1.76-1.6.07-.94-.59-1.72-1.52-1.81-.95-.1-1.8.61-1.88,1.57-.07.93.69,1.78,1.64,1.84M78.33,131.85c-.97,0-1.71.78-1.68,1.76.03.91.8,1.66,1.71,1.65.92,0,1.73-.86,1.7-1.79-.02-.91-.79-1.63-1.73-1.62M123.67,105.86c-.87.03-1.65.85-1.66,1.73,0,.98.84,1.77,1.85,1.72.9-.04,1.61-.83,1.59-1.75-.02-.94-.85-1.73-1.78-1.69M21.71,94.58c-.03-.9-.81-1.67-1.7-1.69-.94-.02-1.74.77-1.74,1.73,0,.98.75,1.73,1.73,1.72.95-.01,1.74-.82,1.71-1.76M16.68,76.7c-.95.02-1.7.84-1.66,1.8.04.92.79,1.63,1.72,1.63.96,0,1.76-.81,1.73-1.74-.02-.93-.85-1.71-1.8-1.69M94.65,128.59c-.97-.05-1.77.7-1.79,1.67-.02.91.72,1.71,1.62,1.76.95.05,1.77-.72,1.8-1.68.02-.9-.72-1.7-1.62-1.75M65.39,15.09c-.94-.01-1.76.81-1.74,1.74.02.96.83,1.72,1.79,1.68.93-.04,1.64-.8,1.63-1.73-.01-.92-.77-1.68-1.68-1.69M105.8,123.9c.05.94.89,1.68,1.83,1.64.89-.04,1.61-.84,1.6-1.76-.02-.96-.8-1.71-1.77-1.68-.94.03-1.71.87-1.66,1.8M15.02,72c.03.98.81,1.69,1.8,1.65.91-.04,1.65-.82,1.65-1.72,0-.93-.84-1.73-1.77-1.72-.95.02-1.71.83-1.68,1.79M55.66,128.6c-.98-.01-1.75.77-1.72,1.74.02.91.8,1.69,1.69,1.69.93.01,1.75-.83,1.73-1.76-.02-.91-.79-1.66-1.7-1.67M26.45,105.87c-.95,0-1.7.78-1.69,1.75,0,.97.77,1.71,1.75,1.69.88-.01,1.66-.8,1.67-1.69.01-.92-.8-1.75-1.73-1.75M133.43,76.68c-.97.03-1.7.82-1.67,1.8.04.93.79,1.66,1.71,1.66.95,0,1.76-.82,1.74-1.76-.02-.95-.84-1.73-1.79-1.71M105.77,26.53c0,.94.79,1.71,1.76,1.73.96.02,1.72-.75,1.72-1.73,0-.96-.77-1.73-1.74-1.74-.91,0-1.74.82-1.74,1.75M71.85,15.07c-.96,0-1.73.78-1.72,1.75,0,.96.8,1.73,1.75,1.72.97-.01,1.73-.78,1.72-1.75,0-.96-.79-1.73-1.75-1.72M131.96,55.72c0-.93-.73-1.68-1.66-1.72-.96-.04-1.78.73-1.8,1.68-.02.96.75,1.77,1.71,1.78.96.01,1.75-.78,1.75-1.74M130.27,92.89c-.87-.03-1.7.74-1.76,1.62-.07.95.68,1.78,1.63,1.82.97.05,1.77-.68,1.81-1.64.04-.93-.75-1.77-1.68-1.8M135.22,71.95c.02-.93-.78-1.75-1.71-1.77-.94-.02-1.73.76-1.75,1.72-.02.98.71,1.73,1.69,1.75.95.01,1.76-.75,1.77-1.69M42.66,24.79c-.93-.01-1.74.8-1.75,1.74,0,.93.79,1.72,1.75,1.74.96.02,1.73-.75,1.73-1.73,0-.97-.76-1.74-1.73-1.75M21.72,55.76c.03-.93-.75-1.75-1.69-1.78-.96-.03-1.75.72-1.78,1.67-.03.96.72,1.76,1.67,1.79.93.03,1.77-.76,1.8-1.68M26.45,41.01c-.95,0-1.7.76-1.71,1.74,0,.98.73,1.71,1.72,1.72.93,0,1.75-.8,1.74-1.73,0-.92-.83-1.73-1.76-1.73M92.81,20.04c-.01.96.76,1.72,1.74,1.72.97,0,1.74-.75,1.74-1.72,0-.96-.78-1.75-1.73-1.75-.91,0-1.74.83-1.75,1.76M78.34,15.05c-.96,0-1.72.78-1.71,1.76,0,.98.75,1.73,1.73,1.72.97,0,1.75-.79,1.74-1.74,0-.92-.83-1.74-1.76-1.74M55.69,18.28c-.91-.03-1.75.78-1.78,1.72-.04.97.7,1.73,1.69,1.75.99.02,1.75-.7,1.77-1.67.02-.95-.75-1.77-1.69-1.8M123.7,41c-.92.01-1.72.85-1.7,1.78.02.95.8,1.69,1.78,1.68.97,0,1.7-.76,1.68-1.75-.02-.95-.82-1.73-1.76-1.71M37.68,120.6c.01.95.82,1.73,1.77,1.72.97-.01,1.73-.79,1.72-1.76,0-.95-.82-1.74-1.77-1.72-.97.02-1.74.8-1.73,1.76M31.44,110.94c.06-.95-.67-1.77-1.62-1.83-1-.07-1.85.69-1.88,1.69-.03.93.75,1.76,1.68,1.8.93.04,1.76-.71,1.82-1.66M112.5,120.55c0-.95-.79-1.73-1.73-1.73-.99,0-1.79.83-1.76,1.81.03.94.84,1.69,1.8,1.67.98-.02,1.7-.77,1.69-1.75M120.56,109.1c-.97-.04-1.77.69-1.81,1.65-.05,1.01.72,1.83,1.73,1.84.95.02,1.74-.75,1.77-1.7.02-.96-.72-1.76-1.68-1.79M34.4,117.29c-.02.98.82,1.81,1.81,1.8.95-.01,1.76-.83,1.74-1.76-.02-.98-.77-1.73-1.75-1.74-.96,0-1.77.76-1.8,1.7M34.7,114.15c.04-.95-.72-1.77-1.68-1.82-.99-.05-1.85.77-1.85,1.75,0,.95.77,1.74,1.73,1.76.97.02,1.76-.73,1.8-1.69M110.83,28c-.99-.03-1.82.77-1.83,1.76,0,1.01.79,1.79,1.8,1.77.97-.01,1.71-.77,1.72-1.74,0-.97-.74-1.76-1.69-1.78M119.02,114.12c.02-1-.78-1.81-1.78-1.81-.99,0-1.79.83-1.76,1.83.03.94.83,1.7,1.78,1.7.96,0,1.74-.76,1.75-1.72M41.21,29.77c0-.97-.85-1.79-1.83-1.76-.95.03-1.72.81-1.72,1.76,0,1.01.79,1.77,1.82,1.75.96-.02,1.73-.8,1.73-1.74M36.17,31.23c-.98.01-1.81.85-1.79,1.82.02.93.82,1.72,1.76,1.75.98.03,1.83-.79,1.84-1.77,0-.98-.82-1.81-1.8-1.8M29.66,37.75c-.95.01-1.74.79-1.74,1.74,0,.97.84,1.8,1.82,1.78.96-.02,1.73-.79,1.73-1.74,0-1.01-.8-1.79-1.81-1.78M112.24,117.25c-.04.94.71,1.78,1.65,1.84.98.07,1.86-.71,1.9-1.68.04-.96-.69-1.77-1.65-1.82-1.02-.06-1.86.68-1.9,1.67M120.7,37.76c-1.03-.1-1.88.59-1.96,1.59-.08.98.69,1.86,1.66,1.92.97.05,1.77-.65,1.85-1.61.07-.98-.6-1.8-1.56-1.89M32.94,38.03c.95,0,1.77-.76,1.81-1.68.04-.98-.75-1.84-1.73-1.87-.99-.04-1.83.75-1.84,1.74-.02,1.01.77,1.81,1.77,1.82M113.97,31.24c-.94.03-1.74.83-1.75,1.76-.01.97.83,1.82,1.79,1.82.98,0,1.8-.84,1.8-1.82,0-.98-.86-1.79-1.84-1.76M117.21,34.48c-.95.03-1.73.82-1.73,1.75,0,1.02.78,1.8,1.78,1.8.99,0,1.81-.82,1.79-1.8-.02-.98-.85-1.78-1.84-1.76M62.13,132.08c1.01,0,1.81-.79,1.8-1.8,0-.93-.79-1.73-1.74-1.77-1.01-.04-1.81.73-1.83,1.75-.02,1.02.76,1.82,1.77,1.82M128.81,52.44c0-.99-.84-1.78-1.85-1.76-1,.02-1.79.83-1.78,1.84.01,1.01.82,1.77,1.84,1.76.98-.01,1.79-.85,1.79-1.84M88.02,128.53c-.97.02-1.73.78-1.75,1.75-.02.98.81,1.82,1.8,1.82,1.01,0,1.8-.8,1.8-1.8,0-.99-.83-1.78-1.84-1.76M54.2,127.1c.03-.98-.77-1.82-1.76-1.85-.98-.03-1.81.77-1.82,1.77-.02,1,.75,1.82,1.75,1.84.97.02,1.81-.78,1.83-1.76M97.85,125.23c-.94-.03-1.81.81-1.84,1.78-.03.98.77,1.82,1.75,1.85.97.02,1.83-.79,1.85-1.75.03-.95-.82-1.84-1.76-1.87M130.18,86.35c-1,.03-1.78.86-1.75,1.85.03.99.88,1.79,1.85,1.76.99-.03,1.77-.86,1.75-1.86-.02-.99-.85-1.78-1.85-1.75M125.2,97.82c-.03,1,.76,1.84,1.75,1.87.96.03,1.84-.8,1.86-1.77.02-.97-.8-1.83-1.77-1.86-1.01-.03-1.81.74-1.84,1.76M132.04,62.23c.02-.96-.81-1.85-1.77-1.87-.96-.02-1.82.82-1.84,1.8-.02.99.78,1.83,1.77,1.85.99.02,1.82-.78,1.84-1.78M23.24,96.08c-.99-.02-1.82.78-1.83,1.77-.01.96.83,1.83,1.78,1.85.96.02,1.81-.81,1.83-1.79.02-.98-.79-1.81-1.78-1.82M20.04,60.37c-.99-.04-1.89.84-1.88,1.85.01.98.83,1.8,1.81,1.8.98,0,1.81-.8,1.83-1.78.02-.97-.78-1.83-1.75-1.87M18.15,88.11c-.02.96.82,1.83,1.79,1.84.97.02,1.83-.82,1.84-1.79.01-.99-.79-1.81-1.79-1.83-.99-.02-1.83.78-1.85,1.77M23.22,50.67c-.97,0-1.8.8-1.83,1.77-.03,1.02.81,1.84,1.86,1.83,1.01-.02,1.77-.79,1.77-1.81,0-1.01-.78-1.78-1.79-1.79M63.96,20.04c0-1.03-.87-1.86-1.9-1.82-.98.04-1.77.89-1.74,1.88.02.99.87,1.81,1.84,1.79.95-.02,1.8-.89,1.8-1.85M88.15,18.21c-1-.04-1.9.83-1.91,1.83,0,.98.81,1.81,1.8,1.83.96.02,1.81-.8,1.84-1.79.03-1-.74-1.84-1.73-1.88M95.99,23.23c-.03,1.01.73,1.84,1.72,1.88,1.02.04,1.9-.78,1.92-1.81.02-.98-.79-1.8-1.79-1.83-1-.02-1.82.75-1.85,1.75M54.23,23.33c.03-.98-.76-1.82-1.75-1.86-1.06-.04-1.89.75-1.88,1.81,0,.99.8,1.81,1.78,1.82.97.01,1.82-.8,1.85-1.78M68.66,128.45c-1.03-.03-1.9.82-1.89,1.84,0,1.03.85,1.84,1.91,1.82,1.03-.02,1.77-.79,1.76-1.83,0-1.02-.77-1.81-1.78-1.83M81.63,132.13c1.03-.02,1.77-.77,1.77-1.82,0-1.02-.76-1.82-1.76-1.84-1.03-.03-1.9.82-1.9,1.84,0,1.05.83,1.84,1.89,1.82M49.11,121.95c-1.03.02-1.85.89-1.82,1.92.04.99.85,1.78,1.85,1.78,1.04,0,1.89-.85,1.88-1.87-.01-1.02-.88-1.86-1.91-1.84M18.11,81.71c.03.98.85,1.78,1.84,1.79,1.03.02,1.87-.82,1.87-1.85,0-1.06-.81-1.84-1.87-1.83-1.04.01-1.86.85-1.83,1.88M75.15,128.44c-1.03-.01-1.9.83-1.91,1.84,0,1.05.81,1.86,1.86,1.85,1.07-.01,1.86-.81,1.85-1.86-.01-1-.81-1.82-1.8-1.83M121.9,101c-.04,1.09.76,1.95,1.84,1.98,1,.02,1.89-.85,1.88-1.85,0-1.01-.86-1.86-1.87-1.88-.98-.02-1.81.77-1.85,1.76M19.92,66.83c-1.03.03-1.85.92-1.8,1.94.04.99.87,1.78,1.86,1.78,1.03,0,1.89-.87,1.86-1.88-.03-1.02-.91-1.87-1.92-1.84M81.59,18.18c-1.04,0-1.87.82-1.87,1.85,0,1.03.84,1.88,1.85,1.89,1.02,0,1.86-.84,1.86-1.87,0-1.07-.8-1.87-1.84-1.87M132.1,68.73c.02-1.06-.89-1.95-1.95-1.91-.98.04-1.8.89-1.79,1.85,0,1.02.88,1.87,1.89,1.86.98-.01,1.83-.84,1.85-1.81M18.1,75.18c0,1.02.86,1.86,1.88,1.85,1.03,0,1.86-.84,1.86-1.87,0-1.03-.85-1.87-1.87-1.86-1.03,0-1.88.86-1.87,1.87M24.6,101.07c-.01,1.03.8,1.88,1.83,1.91,1.01.03,1.88-.81,1.89-1.83,0-1.03-.8-1.88-1.83-1.9-1.04-.03-1.88.79-1.89,1.82M128.35,81.7c.02,1.02.91,1.85,1.93,1.81,1-.03,1.79-.83,1.8-1.84.02-1.03-.83-1.86-1.88-1.86-1.03,0-1.88.87-1.86,1.88M101.05,24.64c-1.01,0-1.87.84-1.89,1.85-.02,1.07.86,1.95,1.91,1.93,1.02-.02,1.85-.87,1.84-1.9,0-1.02-.85-1.88-1.86-1.88M68.62,18.19c-1.03,0-1.89.85-1.88,1.86.01,1.03.86,1.88,1.88,1.88,1.03,0,1.87-.85,1.87-1.87,0-1.04-.84-1.87-1.87-1.87M26.53,47.33c-1.04-.03-1.96.86-1.96,1.89,0,1.02.84,1.88,1.85,1.89,1.03,0,1.87-.81,1.89-1.84.02-1.04-.78-1.91-1.78-1.94M102.9,123.78c-.02-1.01-.89-1.85-1.9-1.82-1.02.02-1.84.87-1.82,1.9.02,1.02.87,1.84,1.89,1.82,1.02-.02,1.85-.88,1.83-1.9M128.34,75.21c.02,1.02.88,1.83,1.93,1.82,1.05-.02,1.86-.86,1.84-1.9-.02-1.03-.89-1.85-1.92-1.83-1.03.02-1.86.89-1.84,1.91M74.99,18.17c-.99.04-1.76.85-1.76,1.85,0,1.08.87,1.94,1.94,1.91,1.01-.02,1.85-.9,1.83-1.92-.02-1.06-.92-1.89-2-1.85M89.43,127.07c0,1.06.89,1.91,1.96,1.89,1.01-.02,1.81-.87,1.81-1.91,0-1.07-.87-1.91-1.95-1.89-.99.02-1.83.9-1.82,1.91M123.74,47.34c-1.06.02-1.91.91-1.87,1.97.04,1.02.93,1.85,1.92,1.81,1.01-.05,1.86-.93,1.84-1.92-.02-1.02-.89-1.87-1.89-1.85M23.14,93.28c1.07.04,1.96-.8,1.97-1.87.01-1.05-.88-1.95-1.92-1.94-1,.01-1.84.87-1.85,1.89-.01,1.05.77,1.88,1.8,1.92M49.31,24.63c-1.03-.09-1.99.77-2.05,1.82-.05,1.01.77,1.9,1.79,1.96,1.01.06,1.93-.75,1.99-1.76.07-.99-.74-1.93-1.74-2.02M58.8,125.16c-.99.03-1.81.92-1.79,1.94.02,1.05.93,1.9,1.99,1.86,1-.04,1.83-.94,1.8-1.95-.03-1.06-.93-1.89-2-1.85M127.02,89.47c-1.02-.02-1.96.91-1.94,1.93.01,1.02.87,1.87,1.88,1.88,1.05.02,1.94-.87,1.93-1.92,0-1.02-.85-1.87-1.87-1.89M31.61,104.33c-.01-1-.88-1.88-1.86-1.92-1.02-.03-1.95.87-1.96,1.91-.02,1.05.86,1.93,1.92,1.94,1.08,0,1.92-.85,1.9-1.93M104.39,118.67c-1.08-.05-1.98.78-2.01,1.85-.02,1.04.88,1.98,1.91,1.98,1.02,0,1.85-.83,1.88-1.87.03-1.05-.75-1.91-1.78-1.96M25.13,59.03c.05-1.07-.79-1.95-1.88-1.97-1.06-.02-1.88.76-1.91,1.82-.04,1.1.77,1.97,1.85,1.98,1.02.01,1.89-.82,1.94-1.83M45.87,118.66c-1.02.02-1.86.87-1.86,1.9,0,1,.86,1.9,1.85,1.93,1.07.03,1.95-.83,1.95-1.91,0-1.08-.87-1.95-1.94-1.92M60.81,23.33c.03-1.04-.85-1.95-1.9-1.96-1.06,0-1.93.86-1.94,1.92,0,1.05.78,1.86,1.83,1.89,1.08.02,1.97-.8,2-1.84M93.22,23.3c.02-1.07-.85-1.95-1.9-1.93-1.07.02-1.91.88-1.9,1.95,0,1.05.81,1.85,1.85,1.86,1.1,0,1.94-.8,1.96-1.88M104.26,27.84c-1.07.02-1.94.91-1.91,1.97.03,1.03.86,1.85,1.9,1.87,1.08.02,1.94-.82,1.94-1.91,0-1.09-.86-1.95-1.93-1.93M27.77,45.96c-.02,1.06.84,1.94,1.9,1.96,1.05.02,1.95-.85,1.97-1.89.02-1.04-.86-1.94-1.91-1.96-1.07-.01-1.94.83-1.96,1.89M126.94,57.07c-1.03.02-1.87.88-1.87,1.89,0,1.01.87,1.89,1.87,1.91,1.05.02,1.96-.87,1.96-1.92,0-1.09-.86-1.91-1.96-1.89M120.47,102.43c-1.04.02-1.95.96-1.91,1.98.03.98.92,1.86,1.91,1.88,1.07.02,1.94-.84,1.94-1.91,0-1.06-.9-1.96-1.93-1.94M45.88,27.84c-1.01.01-1.88.86-1.91,1.88-.03,1.06.84,1.96,1.91,1.98,1.07.02,1.94-.84,1.94-1.92,0-1.08-.87-1.95-1.94-1.93M122.42,45.97c0-1.06-.89-1.93-1.94-1.91-1.04.01-1.94.93-1.93,1.95.01,1.05.9,1.91,1.96,1.9,1.07,0,1.92-.87,1.91-1.93M32.97,105.66c-1.06-.01-1.97.85-1.99,1.91-.03,1.03.86,1.95,1.92,1.98,1.07.03,1.95-.83,1.96-1.91.01-1.09-.82-1.96-1.89-1.97M42.68,115.39c-1.06-.01-1.96.87-1.95,1.92,0,1.06.88,1.93,1.94,1.95,1.05.02,1.97-.89,1.95-1.93-.01-1.07-.88-1.93-1.95-1.95M117.25,105.67c-1.07,0-1.94.88-1.94,1.94,0,1.06.89,1.94,1.94,1.94,1.06,0,1.92-.88,1.92-1.95,0-1.1-.84-1.93-1.93-1.93M107.45,115.39c-1.04.03-1.91.95-1.87,1.98.04,1.06.91,1.89,1.97,1.89,1.05,0,1.95-.9,1.93-1.93-.02-1.08-.96-1.97-2.04-1.95M112.06,110.84c0,1.06.86,1.93,1.93,1.94,1.13.01,1.99-.87,1.97-1.99-.02-1.06-.91-1.92-1.97-1.9-1.04.01-1.93.91-1.93,1.95M110.77,112.14c-1.08,0-1.94.83-1.96,1.9-.02,1.08.92,2.01,2.01,1.99,1.08-.03,1.9-.88,1.9-1.97,0-1.07-.86-1.92-1.94-1.92M65.45,125.11c-1.08-.03-1.96.78-2.01,1.85-.05,1.12.81,2.04,1.92,2.05,1.06,0,1.95-.86,1.97-1.91.02-1.05-.83-1.96-1.89-1.99M37.47,114.07c0,1.04.88,1.95,1.92,1.98,1.11.02,2-.87,1.98-1.99-.02-1.09-.85-1.91-1.95-1.9-1.1,0-1.93.83-1.95,1.92M34.89,42.74c0-1.08-.86-1.94-1.93-1.95-1.1-.01-2.04.92-2,2,.03,1.03.95,1.91,2,1.91,1.05,0,1.94-.9,1.93-1.95M117.26,40.8c-1.08,0-1.94.83-1.96,1.91-.02,1.1.89,2.01,1.99,1.99,1.06-.02,1.9-.88,1.9-1.97,0-1.09-.83-1.93-1.92-1.93M44.62,33.07c.03-1.07-.82-1.98-1.87-2.01-1.09-.03-2.04.88-2.05,1.96,0,1.06.87,1.94,1.93,1.94,1.09,0,1.96-.82,1.99-1.89M25.18,84.83c-.03-1.04-.92-1.9-1.97-1.9-1.09,0-1.97.91-1.95,2.02.02,1.06.89,1.9,1.96,1.9,1.09,0,1.99-.93,1.96-2.02M38.15,110.89c.03-1.1-.87-2.01-1.99-2-1.09.01-1.92.86-1.92,1.95,0,1.09.84,1.93,1.93,1.94,1.09,0,1.96-.82,1.98-1.89M109.5,32.94c-.04-1.05-.95-1.92-1.98-1.89-1.1.03-1.99.95-1.96,2.03.03,1.06.92,1.89,1.98,1.88,1.11-.02,2-.93,1.96-2.01M41.39,36.19c-.03-1.09-.87-1.89-1.97-1.89-1.1,0-2,.93-1.97,2.02.02,1.05.91,1.9,1.99,1.9,1.12,0,1.98-.9,1.96-2.03M121.79,94.63c0,1.12.89,1.98,2.02,1.96,1.07-.02,1.92-.89,1.92-1.96,0-1.11-.91-1.99-2.02-1.98-1.04.01-1.91.92-1.91,1.98M82.87,127.03c0,1.09.9,2,1.98,1.99,1.05-.02,1.92-.89,1.94-1.93.02-1.09-.87-1.97-1.99-1.97-1.08,0-1.93.84-1.94,1.91M94.46,121.87c-1.07.05-1.9.94-1.86,2.01.04,1.06.92,1.91,1.98,1.9,1.09,0,2.01-.94,1.98-2.02-.03-1.08-.99-1.94-2.1-1.89M126.97,82.95c-1.09,0-1.98.92-1.95,2.02.03,1.04.92,1.9,1.98,1.89,1.1,0,1.94-.9,1.93-2.03-.01-1.08-.86-1.89-1.95-1.89M65.36,25.26c1.1,0,2.01-.9,1.99-2.01-.01-1.04-.91-1.93-1.96-1.94-1.11-.01-1.97.88-1.96,2.02,0,1.09.84,1.92,1.94,1.93M71.81,125.09c-1.07.02-1.92.87-1.93,1.93-.01,1.12.85,2.01,1.96,2.01,1.1,0,2-.89,1.99-1.99,0-1.09-.92-1.97-2.02-1.95M78.35,129.05c1.08,0,1.99-.93,1.97-2.02-.02-1.07-.87-1.92-1.94-1.93-1.14-.02-2,.83-2.01,1.95,0,1.12.87,2,1.97,2M123.86,53.74c-1.12-.05-2.03.78-2.08,1.89-.05,1.12.8,2.05,1.9,2.07,1.1.02,2.02-.87,2.05-1.95.02-1.06-.82-1.96-1.86-2.01M127.04,63.47c-1.11-.02-2.01.86-2.01,1.97,0,1.05.87,1.94,1.92,1.97,1.11.03,2-.85,2-1.97,0-1.06-.86-1.95-1.9-1.97M21.27,65.44c0,1.09.93,2.02,2,1.99,1.03-.03,1.93-.95,1.94-1.97,0-1.07-.94-1.99-2.03-1.97-1.09.02-1.9.85-1.91,1.95M112.05,39.54c0,1.06.85,1.91,1.92,1.94,1.11.02,2-.84,2.02-1.95.02-1.09-.88-1.99-1.98-1.99-1.09,0-1.97.9-1.96,2.01M53.68,123.75c-.04,1.1.85,2.02,1.95,2.02,1.08,0,1.94-.81,1.98-1.89.04-1.12-.82-2.01-1.94-2.02-1.06-.01-1.95.84-1.99,1.89M112.74,36.25c0-1.09-.81-1.92-1.92-1.95-1.11-.03-2.03.86-2.04,1.96,0,1.04.88,1.94,1.93,1.96,1.1.03,2.01-.86,2.02-1.97M36.26,37.52c-1.1-.04-2.01.83-2.03,1.95-.02,1.07.82,1.94,1.9,1.98,1.1.03,2.03-.84,2.04-1.95.01-1.04-.86-1.95-1.91-1.98M28.44,94.7c.04-1.1-.84-2.01-1.96-2.04-1.04-.03-1.95.85-2,1.9-.04,1.08.85,2.02,1.96,2.04,1.06.02,1.95-.83,1.99-1.9M82.85,23.3c0,1.08.92,1.97,2.03,1.95,1.06-.02,1.92-.89,1.94-1.93.02-1.08-.89-2-1.97-2.01-1.08,0-1.99.91-1.99,1.99M26.53,53.72c-1.08-.03-2.03.88-2.06,1.95-.03,1.1.87,2.02,1.96,2.02,1.1,0,2.01-.9,2.01-1.99,0-1.04-.88-1.96-1.91-1.98M55.63,28.52c1.05.01,1.96-.85,2.01-1.9.05-1.11-.81-2.05-1.92-2.08-1.1-.04-2.03.85-2.05,1.95-.02,1.11.86,2.02,1.96,2.04M92.57,26.6c.04,1.05.94,1.93,1.98,1.93,1.06,0,2.03-.98,2.02-2.02-.02-1.1-.94-1.98-2.05-1.96-1.1.02-1.99.95-1.95,2.05M23.23,76.42c-1.05,0-1.95.84-2.01,1.9-.06,1.08.83,2.04,1.92,2.1,1.05.05,2.04-.88,2.07-1.96.03-1.07-.9-2.03-1.98-2.04M127.02,76.43c-1.11-.02-2.01.86-2.03,1.95-.02,1.09.88,2.02,1.95,2.05,1.08.03,1.99-.87,2.01-1.97.02-1.12-.83-2.02-1.94-2.03M127.03,69.93c-1.08-.04-2.01.85-2.04,1.95-.03,1.08.87,2.02,1.95,2.05,1.11.03,2-.82,2.02-1.94.02-1.12-.82-2.02-1.92-2.05M25.22,71.96c.02-1.08-.89-2-1.98-2.02-1.09-.02-2.01.87-2.03,1.97-.01,1.06.92,2.02,1.98,2.03,1.08.01,2-.89,2.02-1.98M78.33,21.28c-1.1,0-2,.91-1.98,2.01.01,1.1.93,2,2.02,1.99,1.12,0,1.99-.9,1.98-2.02-.02-1.11-.91-2-2.01-1.99M73.85,23.3c0-1.11-.88-2-1.98-2.01-1.1,0-2.02.89-2.02,1.98,0,1.07.94,2.03,2,2.03,1.09,0,2-.9,2-2.01M54.46,120.59c.01-1.09-.97-2.07-2.08-2.06-1.13.01-2.01.95-1.97,2.11.04,1.13.9,1.95,2.03,1.94,1.09-.02,2.01-.92,2.03-1.99M29.64,95.84c-1.11.03-1.95.92-1.94,2.04,0,1.15.93,2.03,2.09,2,1.09-.03,1.98-.95,1.96-2.03-.01-1.11-.99-2.04-2.11-2.01M120.48,99.91c1.13.01,2.08-.93,2.06-2.06-.01-1.12-.98-2.03-2.12-2-1.12.03-1.95.91-1.94,2.05.01,1.1.9,2,2,2.01M99.83,120.56c0-1.09-.9-1.99-1.99-2.01-1.07-.02-2.02.88-2.06,1.95-.05,1.14.85,2.08,2,2.09,1.15.02,2.06-.88,2.06-2.04M62.21,121.76c-1.09-.05-2.12.93-2.13,2.03-.01,1.08.9,2.02,1.98,2.06,1.15.04,2.09-.86,2.1-2.02.01-1.1-.86-2.02-1.96-2.07M88.02,121.75c-1.08.03-2.04,1.07-1.99,2.15.05,1.1.95,1.95,2.05,1.94,1.15-.01,2.06-.93,2.03-2.06-.02-1.12-1-2.06-2.1-2.03M29.72,50.43c-1.13,0-2.05.92-2.05,2.06,0,1.1.86,1.99,1.97,2.02,1.13.03,2.08-.87,2.1-2,.03-1.13-.9-2.07-2.02-2.07M123.72,90.2c1.1,0,2.08-.98,2.09-2.07,0-1.08-.9-2.01-1.98-2.03-1.16-.03-2.08.85-2.11,2-.03,1.14.89,2.1,2.01,2.1M97.79,27.73c-1.13,0-2.05.95-2.03,2.08.02,1.08.93,2,2.01,2.02,1.11.02,2.07-.92,2.07-2.05,0-1.13-.92-2.06-2.05-2.05M118.47,52.53c.02,1.15.95,2.01,2.11,1.96,1.15-.05,2-.99,1.95-2.14-.04-1.07-.99-1.96-2.07-1.93-1.12.02-2.02.97-2,2.11M50.38,29.66c-.06,1.12.74,2.06,1.84,2.16,1.09.1,2.14-.78,2.25-1.89.11-1.1-.79-2.12-1.92-2.2-1.16-.08-2.11.76-2.17,1.92M26.54,86.1c-1.14-.03-2.1.87-2.12,2-.03,1.14.88,2.1,2.01,2.1,1.13,0,2.06-.92,2.07-2.05,0-1.11-.87-2.02-1.96-2.04M24.41,62.16c-.03,1.13.88,2.07,2.03,2.09,1.14.02,2.06-.9,2.06-2.05,0-1.15-.9-2.04-2.08-2.04-1.08,0-1.99.9-2.02,2M123.78,60.14c-1.11-.04-2.07.91-2.08,2.05,0,1.1.85,1.99,1.98,2.04,1.14.05,2.11-.85,2.14-1.99.03-1.12-.88-2.07-2.03-2.11M86.01,26.51c-.01,1.15.89,2.06,2.04,2.07,1.14,0,2.07-.9,2.08-2.03,0-1.15-.88-2.05-2.04-2.06-1.14-.01-2.07.89-2.09,2.03M101.12,115.26c-1.13-.04-2.1.87-2.12,2-.02,1.17.85,2.1,1.98,2.15,1.12.04,2.11-.89,2.13-2,.02-1.14-.87-2.1-1.99-2.14M32.87,103.2c1.1.05,2.1-.88,2.14-1.98.04-1.18-.89-2.18-2.04-2.2-1.12-.02-2.07.91-2.09,2.03-.02,1.14.87,2.1,1.99,2.14M60.06,26.51c-.02,1.12.92,2.08,2.04,2.09,1.12.01,2.08-.92,2.1-2.04.02-1.14-.88-2.05-2.04-2.06-1.16-.01-2.09.88-2.1,2.01M47.1,117.27c0,1.15.89,2.09,2.02,2.12,1.12.03,2.1-.91,2.11-2.02,0-1.14-.91-2.1-2.02-2.12-1.13-.02-2.1.91-2.1,2.03M30.86,49.23c0,1.16,1,2.14,2.14,2.1,1.13-.04,2.01-.98,2-2.13-.02-1.16-.93-2.05-2.08-2.04-1.12.01-2.06.95-2.06,2.07M79.5,123.82c0,1.15,1.04,2.13,2.18,2.07,1.14-.06,2.02-1.02,1.98-2.15-.04-1.14-1-2.05-2.11-2.03-1.11.03-2.05.99-2.04,2.11M24.38,68.64c0,1.2.89,2.11,2.09,2.12,1.16,0,2.06-.87,2.07-2.03.01-1.2-.89-2.11-2.09-2.12-1.15,0-2.05.89-2.07,2.03M28.52,81.73c.04-1.17-.82-2.11-1.96-2.16-1.18-.04-2.17.89-2.19,2.05-.02,1.15.88,2.08,2.03,2.1,1.18.02,2.08-.83,2.12-1.99M47.06,32.94c-.04,1.16.93,2.16,2.1,2.16,1.14,0,2.06-.91,2.08-2.06.02-1.14-.89-2.09-2.03-2.11-1.12-.02-2.11.9-2.15,2.01M26.45,73.08c-1.15,0-2.06.89-2.09,2.04-.03,1.18.91,2.13,2.1,2.14,1.15.01,2.06-.88,2.08-2.05.03-1.2-.88-2.13-2.09-2.14M115.17,101.09c0,1.1.95,2.09,2.03,2.12,1.13.03,2.17-.99,2.15-2.11-.02-1.1-1-2.06-2.09-2.07-1.11,0-2.09.96-2.09,2.05M101.06,30.91c-1.17,0-2.12.96-2.09,2.15.02,1.15.95,2.04,2.1,2.03,1.14-.02,2.05-.94,2.04-2.09,0-1.14-.93-2.08-2.05-2.09M121.64,81.71c.04,1.13.98,2.04,2.11,2.02,1.2-.02,2.13-.97,2.09-2.14-.03-1.15-.96-2.03-2.09-2.02-1.18.02-2.14.99-2.11,2.13M68.65,121.73c-1.1-.02-2.1.92-2.13,2.02-.04,1.13.96,2.17,2.1,2.17,1.09,0,2.06-.97,2.08-2.08.02-1.1-.94-2.08-2.04-2.11M125.84,68.67c-.03-1.17-.99-2.08-2.18-2.06-1.12.02-2.04.97-2.02,2.09.02,1.19.95,2.07,2.17,2.05,1.14-.02,2.05-.95,2.02-2.08M102.7,112.57c-.12.24-.26.47-.36.72-.46,1.18.18,2.47,1.39,2.83,1.13.34,2.37-.43,2.61-1.62.24-1.17-.58-2.41-1.8-2.46-.62-.02-1.25.36-1.88.56l.04-.04M37.87,102.84c-.27-.13-.53-.28-.81-.4-.94-.42-2.04-.11-2.6.71-.54.79-.46,1.94.18,2.62.7.75,1.81.89,2.67.34.86-.55,1.19-1.6.81-2.57-.1-.25-.19-.49-.29-.73,0,0,.04.03.03.03M91.31,122.67c1.19-.01,2.12-.96,2.1-2.15-.02-1.16-.93-2.05-2.09-2.04-1.21.01-2.12.94-2.1,2.14.02,1.16.94,2.06,2.08,2.05M117.34,47.13c-1.13-.05-2.18.95-2.19,2.09,0,1.09.97,2.08,2.08,2.09,1.11.02,2.1-.93,2.13-2.04.03-1.12-.88-2.09-2.02-2.15M77.21,123.82c0-1.13-1.01-2.13-2.16-2.11-1.1.02-2.05.99-2.06,2.09,0,1.12,1.03,2.14,2.15,2.13,1.07-.01,2.06-1.02,2.07-2.11M66.51,26.48c-.03,1.17.92,2.13,2.1,2.13s2.14-.94,2.11-2.12c-.03-1.14-.96-2.04-2.1-2.03-1.15,0-2.08.9-2.11,2.03M43.83,114.16c.04,1.13,1,2.03,2.12,2.02,1.17-.02,2.11-1.01,2.06-2.17-.04-1.1-1.03-2.05-2.13-2.03-1.17.02-2.1,1.01-2.05,2.18M83.68,26.58c.02-1.19-.9-2.14-2.09-2.14-1.18,0-2.13.95-2.11,2.13.02,1.13.95,2.03,2.1,2.04,1.16,0,2.08-.88,2.1-2.02M31.8,91.37c-.01-1.22-.91-2.09-2.13-2.07-1.17.02-2.04.9-2.05,2.06-.02,1.2.89,2.13,2.08,2.12,1.2,0,2.12-.92,2.11-2.11M111.91,46.03c.02,1.12.96,2.06,2.07,2.09,1.14.02,2.14-.96,2.14-2.12,0-1.17-.96-2.14-2.12-2.13-1.14,0-2.12,1.01-2.1,2.16M116.11,104.34c0-1.13-.92-2.05-2.06-2.07-1.14-.02-2.08.87-2.12,2.01-.04,1.19.87,2.16,2.06,2.17,1.18.01,2.13-.93,2.12-2.11M118.97,89.79c-.14.27-.31.52-.42.8-.37.91-.05,1.97.73,2.52.8.57,1.95.47,2.69-.23.7-.66.83-1.76.33-2.6-.51-.84-1.5-1.21-2.46-.89-.32.11-.61.28-.91.43,0,0,.04-.04.04-.04M77.23,26.54c0-1.15-.96-2.1-2.15-2.11-1.16,0-2.12.97-2.1,2.14.02,1.16.99,2.07,2.19,2.05,1.13-.02,2.05-.95,2.06-2.08M108.67,107.6c0,1.17.96,2.13,2.13,2.12,1.12,0,2.06-.93,2.09-2.06.03-1.17-.9-2.15-2.08-2.17-1.16-.02-2.14.94-2.14,2.11M121.76,74.48c-.31.94.05,1.97.86,2.47.83.5,1.96.38,2.61-.29.72-.74.81-1.84.22-2.69-.56-.8-1.58-1.11-2.51-.75-.31.12-.62.23-.93.35l.04-.04c-.1.32-.2.64-.3.95M102.65,37.69c.32.19.62.42.96.55,1.04.38,2.14-.12,2.59-1.15.44-1.01.05-2.2-.9-2.7-.97-.51-2.16-.22-2.76.69-.61.91-.42,1.79.15,2.64,0,0-.03-.03-.03-.03M43.41,108.88c-.98-.38-2-.02-2.54.87-.49.81-.34,1.94.34,2.6.73.71,1.85.8,2.68.22,1.04-.74,1.14-1.95.28-3.3l.03.04c-.27-.14-.52-.31-.8-.42M41.1,106.08c-.27-.13-.53-.28-.81-.4-.96-.42-2.01-.12-2.6.74-.56.82-.49,1.86.19,2.62.64.72,1.75.88,2.6.39.9-.53,1.29-1.56.94-2.53-.1-.28-.23-.56-.35-.84l.03.03M38.08,46.91c.43-.9.2-1.94-.55-2.56-.73-.6-1.75-.64-2.54-.1-.79.53-1.1,1.58-.75,2.51.5,1.34,1.94,1.67,3.44.79l-.04.03c.15-.22.32-.44.43-.68M60.65,119.11c-.27-.14-.53-.28-.8-.41-.93-.45-2.04-.19-2.64.61-.58.78-.55,1.9.07,2.64.64.76,1.81.95,2.68.43.89-.53,1.25-1.55.91-2.55-.09-.25-.16-.5-.24-.75,0,0,.03.03.03.03M107.56,108.73c-1.16-.03-2.11.92-2.11,2.11,0,1.18.95,2.13,2.12,2.12,1.12,0,2.04-.93,2.06-2.07.02-1.19-.87-2.13-2.07-2.16M29.68,56.84c-1.14.02-2.05.93-2.07,2.07-.02,1.19.92,2.18,2.08,2.18,1.16,0,2.12-.97,2.12-2.15,0-1.2-.94-2.13-2.13-2.11M118.93,60.49c.27.15.52.32.8.43.98.39,2.11-.02,2.62-.93.51-.9.26-2.11-.58-2.73-.87-.65-2-.56-2.77.2-.77.77-.79,1.76-.04,3.05l-.03-.03M47.91,36.93c.32-.93-.06-1.98-.89-2.47-.86-.51-1.91-.37-2.6.33-.71.72-.82,1.76-.28,2.61.54.85,1.54,1.19,2.48.85.31-.11.63-.21.95-.32,0,0-.03.04-.03.04.13-.35.26-.69.38-1.04M109.19,44.23c.32.18.62.43.97.53.95.3,1.74-.01,2.33-.79.57-.75.57-1.58.07-2.37-.5-.79-1.27-1.12-2.19-.93-1.63.33-2.3,2.24-1.15,3.58l-.03-.03M91.39,27.64c-1.13-.06-2.15.89-2.18,2.06-.04,1.18.88,2.16,2.04,2.19,1.18.03,2.15-.87,2.19-2.05.04-1.17-.86-2.14-2.04-2.2M41.44,43.41c.32-.94-.06-1.96-.9-2.48-.83-.51-1.81-.42-2.54.24-.75.68-.92,1.7-.43,2.59.48.87,1.45,1.28,2.42,1.01.36-.1.7-.24,1.05-.36l-.04.03c.14-.34.31-.68.43-1.03M60.92,30.39c.29-.96-.1-1.96-.96-2.45-.88-.51-1.9-.36-2.6.38-.67.7-.78,1.69-.29,2.53.5.85,1.51,1.25,2.45.95.35-.11.69-.26,1.04-.4l-.03.03c.13-.35.28-.69.39-1.04M44.68,40.16c.31-.97-.06-1.95-.91-2.47-.83-.51-1.9-.38-2.61.34-.67.67-.8,1.82-.29,2.62.52.83,1.52,1.17,2.49.85.32-.11.63-.22.95-.34l-.04.04c.14-.35.29-.68.4-1.04M106.89,41.52c.93.29,1.97-.09,2.45-.94.48-.84.43-1.69-.19-2.45-.62-.76-1.7-.97-2.57-.53-.84.43-1.31,1.33-1.1,2.28.09.42.32.8.49,1.2.02.03.05.07.08.09.28.12.55.26.84.35M63.85,118.99h0c-.15.26-.33.51-.44.78-.46,1.15.08,2.39,1.21,2.81,1.17.43,2.56-.17,2.79-1.39.12-.67-.19-1.41-.31-2.12-.06-.05-.12-.1-.18-.16-1.04-.57-2.07-.7-3.07.08M82.81,119.85c-.42,1.28.3,2.54,1.58,2.81,1.21.26,2.42-.58,2.57-1.84.1-.83-.16-1.56-.89-2.02-.89-.56-1.79-.53-2.65.11-.06.04-.13.08-.19.12-.14.27-.33.52-.42.8M33.73,92.61c-1.06-.37-2.06-.02-2.62.91-.52.86-.36,2,.37,2.68.75.7,1.82.77,2.7.2.96-.63,1.12-1.54.58-3.15l-.37-.38c-.22-.09-.44-.18-.66-.25M122.61,85.25c.12-.87-.13-1.61-.86-2.12-.88-.61-1.78-.47-2.65.06-.08.1-.16.2-.24.3-.71.96-.69,1.91,0,2.86.08.09.15.18.23.26,1.74.84,3.3.23,3.53-1.37M54.09,115.74s.04-.02.04-.02c-.15.26-.35.51-.45.78-.35.9-.23,1.74.5,2.4.71.64,1.55.79,2.43.34.92-.47,1.26-1.27,1.14-2.27-.04-.33-.17-.65-.26-.97-.12-.13-.23-.26-.35-.39-1.04-.58-2.07-.6-3.06.12M92.95,118.78c.65.71,1.64.92,2.49.51.92-.43,1.39-1.31,1.25-2.31-.23-1.65-1.93-2.25-3.6-1.27-.05.07-.1.14-.16.21-.71,1.13-.71,2.06.01,2.86M116.49,96.65c1.07.4,2.23-.06,2.72-1.11.41-.89.26-1.72-.4-2.43-.74-.79-1.71-.83-2.96-.16-.08.1-.16.2-.24.3-.88.96-.39,1.97-.11,2.97h-.02c.34.14.67.3,1.01.43M119.65,67.43c.97.37,1.93.14,2.54-.63.59-.74.62-1.88.06-2.63-.59-.79-1.55-1.09-2.51-.76-.28.1-.55.25-.82.38-.01.06-.04.12-.09.17-.6.96-.71,1.92.01,2.87.08.12.17.25.25.37.18.07.37.15.55.22M34.99,56.4c.32-.9.09-1.69-.6-2.29-.73-.64-1.61-.72-2.46-.27-.87.45-1.23,1.23-1.1,2.21.21,1.62,1.69,2.22,3.54,1.43.13-.1.26-.2.39-.3.08-.26.15-.52.25-.77M66.71,31.55c.17-.1.34-.2.51-.29.05-.79.3-1.63.1-2.34-.31-1.15-1.77-1.62-2.83-1.11-1.3.62-1.6,1.93-.78,3.41.11.11.23.23.34.34.89.54,1.77.52,2.66,0M88.93,94.84c-.38-.3-.58-.58-.71-.54-.22.05-.39.3-.57.46.16.16.3.41.49.44.17.03.38-.16.8-.36M65.31,51.57c-.25.4-.49.63-.45.77.07.21.31.44.52.49.11.03.45-.29.45-.45,0-.21-.24-.41-.52-.82M84.07,51.92c.38.45.58.69.78.93.22-.25.43-.49.82-.93h-1.6ZM65.92,98.44c-.11-.37-.13-.7-.29-.92-.08-.1-.56-.09-.62.01-.15.25-.15.58-.22.91h1.14ZM85.41,98.46c-.02-.36-.04-.67-.06-.97q-1.08-.03-.87.97h.93ZM98.37,84.52c-.11-.08-.21-.17-.32-.25-.22.25-.45.5-.67.75.28.19.56.38.99.66v-1.17ZM97.46,64.93c-.17.85.04,1.22.89.93v-.98c-.33.02-.61.03-.89.05M101.65,74.65c-.93-.18-1.22.14-.95,1.05h.95v-1.05ZM51.77,84.44c.01.35.03.67.04.96.96.23,1.18-.12.92-.96h-.96ZM101.68,68.06c-.41.02-.74.04-1.13.07.03.4.05.72.07,1.04h1.06v-1.11ZM100.58,82.23h1.07v-1.18c-.39.02-.72.04-1.07.05v1.13ZM51.78,65.91c1.01.22,1.2-.18.96-.99h-.96v.99ZM69.11,49.69v-1.16c-.42.02-.76.03-1.16.05.04.44.07.76.11,1.11h1.05ZM75.63,49.6v-1.03c-.39.02-.74.03-1.05.05-.21.98.18,1.21,1.05.99M74.56,101.79c.38-.02.69-.04,1.02-.06v-1.05c-.97-.23-1.24.16-1.02,1.11M49.55,75.7v-1.02h-1.07c.03.4.05.72.08,1.09.38-.03.67-.04.99-.07M94.03,56.18h1.13v-1.05h-1.13v1.05ZM56.12,56.21v-1.1h-1.17c.02.4.03.73.05,1.1h1.12ZM48.53,82.29c.4-.03.72-.05,1.06-.07v-1.09h-1.06v1.16ZM82.14,48.61h-1.15c.03.39.05.71.08,1.04h1.07v-1.04ZM49.67,69.21c-.03-.43-.06-.75-.08-1.08h-1.07v1.08h1.15ZM59.38,52.98v-1.21c-.43.02-.78.04-1.12.05v1.15h1.12ZM82.19,100.68h-1.16v1.07h1.16v-1.07ZM69.15,100.66h-1.09v1.1h1.09v-1.1ZM58.23,98.5h1.27c-.04-.43-.06-.78-.1-1.2-.43.02-.78.04-1.17.05v1.15ZM94.07,95.26h1.12v-1.16h-1.12v1.16ZM90.78,52.98h1.18v-1.22c-.43.03-.8.07-1.23.1.02.43.03.76.05,1.12M56.19,94.1h-1.2v1.16h1.2v-1.16ZM101.75,62.75v-1.24c-.42.02-.81.04-1.22.05v1.19h1.22ZM51.72,59.48h1.22v-1.16h-1.22v1.16ZM98.46,59.47c.02-.39.04-.74.06-1.14h-1.23v1.14h1.16ZM51.71,92.1c.46-.03.85-.06,1.29-.09-.03-.43-.06-.79-.09-1.16h-1.2v1.25ZM97.28,92.02h1.26c-.02-.38-.03-.76-.05-1.21-.46.03-.83.05-1.21.07v1.14ZM62.8,48.55h-1.39c.02.45.04.83.06,1.2h1.23c.03-.4.06-.76.09-1.2M88.73,48.56h-1.24v1.17h1.24v-1.17ZM72.54,45.32h-1.39c.03.43.05.79.07,1.15h1.25c.02-.4.04-.73.06-1.15M90.79,97.36v1.16h1.18v-1.22c-.42.02-.77.04-1.18.06M78.99,45.31h-1.24v1.16h1.24v-1.16ZM87.46,101.8h1.36c-.03-.45-.05-.83-.07-1.18h-1.29v1.18ZM48.47,61.54v1.33c.46-.04.85-.06,1.23-.09v-1.23h-1.23ZM61.49,100.56v1.31c.46-.02.84-.04,1.23-.05v-1.25h-1.23ZM103.75,72.54h1.26v-1.28h-1.26v1.28ZM49.7,87.55h-1.25v1.26h1.25v-1.26ZM101.78,87.49c-.48.02-.86.04-1.25.06v1.26h1.25v-1.32ZM45.21,77.73v1.38c.44-.02.83-.04,1.25-.06v-1.24c-.42-.03-.81-.05-1.25-.08M45.23,71.28v1.37c.46-.03.84-.06,1.21-.09v-1.28h-1.21ZM79.01,103.87h-1.29v1.23h1.34c-.02-.44-.04-.83-.05-1.23M71.21,105.07h1.37c-.03-.46-.06-.84-.09-1.24h-1.28v1.24ZM103.75,77.79v1.27h1.26v-1.36c-.45.03-.83.06-1.26.09M103.72,66.08h1.32v-1.41c-.47.03-.89.05-1.32.08v1.33ZM84.2,46.6h1.35v-1.4h-1.35v1.4ZM64.67,46.6h1.37v-1.4h-1.37v1.4ZM46.49,84.24h-1.34v1.39h1.34v-1.39ZM105.06,84.19c-.48.02-.9.04-1.37.07v1.38h1.37v-1.44ZM64.65,105.14h1.35v-1.42h-1.35v1.42ZM84.11,105.14h1.45v-1.36h-1.35c-.03.47-.06.9-.09,1.36M46.51,64.72h-1.33v1.37h1.33v-1.37ZM97.16,53.13h1.42v-1.46h-1.42v1.46ZM53.05,53.12v-1.43h-1.47c.02.48.05.93.07,1.43h1.4ZM51.6,98.68h1.43v-1.51h-1.43v1.51ZM54.88,48.44v1.5c.52-.02.97-.04,1.42-.06v-1.44h-1.42ZM41.85,75.88h1.42v-1.44h-1.42v1.44ZM75.81,43.38v-1.45h-1.49c.03.51.06.97.09,1.45h1.4ZM106.85,75.92h1.49v-1.55c-.54.03-1.01.05-1.49.08v1.47ZM98.59,97.23h-1.45v1.42h1.45v-1.42ZM48.28,54.9c.02.51.05,1,.07,1.48h1.47v-1.48h-1.54ZM74.35,106.93v1.51h1.55c-.02-.52-.04-1.01-.07-1.51h-1.49ZM95.3,48.43h-1.44v1.46h1.44v-1.46ZM100.36,56.38h1.45v-1.47h-1.45v1.47ZM43.35,80.93h-1.5v1.49h1.5v-1.49ZM54.77,101.99c.6-.03,1.11-.05,1.65-.08-.05-.54-.09-1-.13-1.48h-1.43c-.03.51-.05.98-.08,1.56M48.3,95.42h1.59c-.02-.52-.05-.98-.07-1.47h-1.52v1.47ZM41.81,69.43h1.53v-1.55h-1.53v1.55ZM95.38,100.46h-1.54v1.48h1.54v-1.48ZM80.81,106.94v1.49h1.61c-.03-.52-.06-.98-.1-1.49h-1.51ZM80.83,43.36h1.52v-1.47h-1.52v1.47ZM90.57,46.65h1.54v-1.53h-1.54v1.53ZM108.41,80.86c-.58.03-1.07.05-1.58.07v1.5h1.58v-1.58ZM69.38,41.91h-1.56v1.5h1.56v-1.5ZM100.35,95.41h1.46v-1.46h-1.46v1.46ZM58.05,46.66h1.54v-1.53h-1.54v1.53ZM46.64,90.64h-1.59v1.57h1.59v-1.57ZM45.05,59.75c.6-.03,1.08-.05,1.55-.08v-1.53h-1.55v1.6ZM67.8,108.45h1.65c-.04-.54-.07-1.02-.1-1.52h-1.54v1.52ZM105.12,58.11c-.56.03-1.02.05-1.51.08v1.46h1.51v-1.53ZM106.84,69.41h1.53v-1.58c-.54.03-1.02.06-1.53.09v1.49ZM105.17,92.21c-.03-.54-.05-1.05-.07-1.54h-1.49v1.54h1.56ZM92.09,103.7h-1.52v1.49h1.62c-.03-.51-.07-.99-.1-1.49M58.06,103.66v1.55h1.62c-.03-.54-.06-1.03-.09-1.55h-1.53ZM87.32,41.84v1.62h1.56c.03-.54.06-1.06.09-1.62h-1.65ZM62.93,41.85h-1.67v1.6h1.67v-1.6ZM108.46,89.06v-1.76c-.59.03-1.13.06-1.66.09v1.57c.58.04,1.11.07,1.66.1M108.41,61.36h-1.61v1.66h1.61v-1.66ZM43.43,61.38c-.54-.03-1.1-.06-1.64-.09v1.77c.6-.04,1.12-.08,1.64-.11v-1.57ZM88.99,108.52c-.04-.62-.07-1.17-.1-1.65h-1.6v1.65h1.7ZM43.44,87.34h-1.68v1.67h1.68v-1.67ZM111.73,79.33v-1.81c-.54.03-1.09.07-1.68.1v1.61c.58.03,1.13.07,1.68.1M111.72,72.83v-1.82c-.55.04-1.1.09-1.69.13v1.59c.57.03,1.1.06,1.69.1M61.23,106.81v1.77c.61-.03,1.17-.05,1.75-.08-.03-.58-.06-1.13-.09-1.69h-1.66ZM79.24,38.53c-.62.03-1.17.06-1.72.09v1.64h1.72v-1.73ZM71.01,40.26h1.71v-1.71h-1.71v1.71ZM53.24,45.02h-1.77v1.77h1.77v-1.77ZM70.96,111.81h1.76v-1.76h-1.76v1.76ZM38.47,72.84c.61-.05,1.16-.09,1.72-.14v-1.62c-.6-.03-1.15-.05-1.72-.08v1.83ZM40.19,79.25v-1.71h-1.71v1.81c.6-.03,1.15-.07,1.71-.1M49.96,48.29h-1.78c.03.63.05,1.22.08,1.76h1.7v-1.76ZM103.43,51.52c.03.62.06,1.2.09,1.81h1.72v-1.81h-1.81ZM111.74,64.49c-.61.03-1.22.06-1.78.08v1.75h1.78v-1.84ZM77.48,111.8h1.76v-1.74h-1.76v1.74ZM105.22,97.01h-1.77v1.82h1.77v-1.82ZM100.22,50.07h1.8v-1.81h-1.8v1.81ZM98.76,45.01h-1.8v1.82h1.8v-1.82ZM111.75,84.01h-1.8v1.84h1.8v-1.84ZM102.01,100.28h-1.81v1.8h1.81v-1.8ZM46.71,53.31v-1.74c-.65-.03-1.23-.06-1.82-.09.05.64.09,1.26.13,1.83h1.69ZM96.93,105.33h1.84v-1.83h-1.84v1.83ZM40.21,64.6c-.65-.04-1.2-.08-1.77-.11v1.84h1.77v-1.73ZM48.2,100.28v1.8h1.85c-.03-.64-.06-1.2-.09-1.8h-1.76ZM66.26,38.51h-1.87c.05.65.1,1.23.14,1.8h1.73v-1.8ZM108.51,54.76h-1.87c.03.65.06,1.24.08,1.82h1.78v-1.82ZM83.92,38.53c.03.66.06,1.22.09,1.78h1.73v-1.78h-1.81ZM83.94,111.83h1.8v-1.8h-1.8v1.8ZM106.66,95.61h1.87v-1.87h-1.87v1.87ZM53.27,103.51h-1.85v1.83h1.85v-1.83ZM66.3,110.01h-1.89v1.83h1.89v-1.83ZM43.52,54.74h-1.88c.03.66.06,1.27.09,1.86h1.8v-1.86ZM56.52,43.59v-1.83h-1.89c.03.61.06,1.21.09,1.83h1.8ZM38.43,85.89c.67-.03,1.26-.06,1.81-.08v-1.8h-1.81v1.88ZM95.53,43.59v-1.85h-1.9c.03.64.06,1.23.09,1.85h1.81ZM41.65,93.73v1.91c.68-.03,1.3-.06,1.87-.09v-1.83h-1.87ZM44.92,98.85h1.82v-1.86h-1.82v1.86ZM54.66,108.61h1.85v-1.87h-1.85v1.87ZM76.11,35.23h-1.97v1.85h1.85c.04-.68.08-1.27.11-1.85M90.37,40.37h1.93v-1.9h-1.93v1.9ZM95.58,108.61c-.04-.65-.07-1.26-.11-1.86h-1.82v1.86h1.93ZM38.37,59.93c.66-.03,1.3-.07,1.94-.1v-1.88h-1.94v1.98ZM59.83,38.46h-1.98c.03.65.07,1.29.1,1.89h1.89v-1.89ZM74.13,113.2v1.93h2c-.04-.66-.07-1.31-.1-1.93h-1.89ZM115.03,74.21h-1.89v1.88h1.89v-1.88ZM40.32,90.44h-1.95v2c.64-.03,1.29-.07,1.95-.1v-1.9ZM82.59,35.22h-1.96v1.93h1.96v-1.93ZM111.82,59.91v-2.01c-.68.04-1.33.07-1.92.1v1.9h1.92ZM90.36,109.95v1.95h2.02c-.05-.64-.09-1.29-.14-1.95h-1.88ZM67.62,37.11h1.89c.04-.7.08-1.32.11-1.9h-2v1.9ZM57.92,109.92c-.04.72-.07,1.41-.1,2.03.71-.04,1.39-.08,2.03-.12v-1.91h-1.93ZM37.1,80.66h-1.99v2.06c.63-.03,1.31-.07,1.99-.11v-1.95ZM111.81,90.47h-1.93v1.94h1.93v-1.94ZM82.53,113.17h-1.92v1.97h2.02c-.03-.64-.07-1.27-.1-1.97M37.09,69.66v-1.93c-.68-.04-1.34-.07-1.97-.1v2.03h1.97ZM35.13,76.2c.67-.04,1.32-.07,1.94-.11v-1.92h-1.94v2.02ZM69.65,115.16c-.04-.65-.07-1.33-.11-1.97h-1.94v1.97h2.05ZM113.12,80.75v1.84c.68.04,1.33.07,1.96.1v-2.05c-.7.04-1.32.08-1.96.12M115.08,67.64c-.68.04-1.33.08-1.96.12v1.84c.68.04,1.34.07,1.96.11v-2.07ZM63.12,35.21c-.74-.03-1.45-.07-2.11-.1.05.7.1,1.41.15,2.09h1.96v-1.98ZM87.01,35.17c.05.69.1,1.37.15,2.05h1.98v-2.05h-2.13ZM50.14,41.71c-.72-.04-1.46-.08-2.08-.11v2.12h2.08v-2.01ZM37.12,63.14v-1.92c-.72-.04-1.43-.09-2.03-.12v2.14c.68-.03,1.36-.06,2.03-.1M61.14,113.13c-.05.78-.1,1.49-.14,2.1h2.18c-.03-.72-.07-1.43-.1-2.1h-1.94ZM44.82,46.96h2.08v-2.08h-2.08v2.08ZM105.4,46.97v-2.13c-.67.03-1.39.07-2.07.1v2.03h2.07ZM35.07,89.25h2.08v-2.14h-2.08v2.14ZM44.87,103.36c-.04.75-.09,1.49-.12,2.13h2.16v-2.13h-2.04ZM41.65,50.22h2.01v-2.03c-.77-.04-1.51-.09-2.16-.12.04.67.09,1.39.14,2.15M50.16,108.75v-2.14h-2.02c-.04.75-.08,1.47-.12,2.14h2.15ZM113.06,63.23h2.08v-2.15c-.7.05-1.38.09-2.08.14v2.01ZM70.72,31.86c.05.69.1,1.43.14,2.12h1.96c.06-.79.12-1.51.16-2.12h-2.26ZM113.06,87.17v1.97c.73.03,1.44.06,2.08.09v-2.16c-.7.03-1.37.06-2.08.09M106.51,48.11c.04.69.08,1.38.12,2.12h1.95c.04-.76.08-1.48.11-2.12h-2.18ZM51.28,40.52h2.08c.04-.79.07-1.48.1-2.17h-2.18v2.17ZM86.99,115.21h2.17v-2.09h-2.05c-.04.73-.09,1.42-.12,2.09M100,41.62c.03.74.06,1.45.1,2.12h1.99c.04-.76.08-1.48.11-2.12h-2.19ZM105.4,103.35h-2.14v2.12h2.14v-2.12ZM41.65,100.11c-.07.78-.14,1.56-.2,2.21.72-.06,1.5-.12,2.21-.17v-2.04h-2.01ZM116.28,79.49h2.12v-2.14h-2.12v2.14ZM108.64,100.1h-2.11v2.13h2.11v-2.13ZM77.25,31.85v2.15h2.06c.06-.79.12-1.53.17-2.15h-2.23ZM51.26,112.01h2.24c-.05-.72-.1-1.46-.14-2.12-.73-.03-1.42-.06-2.09-.09v2.21ZM33.93,77.42c-.79-.06-1.54-.11-2.18-.16v2.31c.7-.04,1.46-.08,2.18-.12v-2.03ZM98.99,38.32h-2.26c.04.76.07,1.48.11,2.17h2c.05-.74.11-1.48.15-2.17M109.76,53.5h2.19v-2.2c-.73.03-1.51.07-2.19.1v2.1ZM116.27,73.02h2.14v-2.17h-2.14v2.17ZM31.76,70.79v2.24c.73-.03,1.48-.07,2.18-.1v-2.04c-.71-.03-1.46-.07-2.18-.1M100.01,108.68c.8.04,1.57.08,2.21.12-.04-.74-.08-1.52-.11-2.21h-2.1v2.09ZM109.74,96.83v2.12c.75.04,1.55.07,2.22.1-.03-.76-.07-1.54-.1-2.23h-2.12ZM38.34,53.52h2.09v-2.08c-.81-.07-1.59-.13-2.22-.18.04.72.09,1.51.13,2.27M70.76,116.33v2.22h2.29c-.06-.66-.14-1.44-.22-2.22h-2.07ZM38.33,96.81c-.04.79-.09,1.6-.13,2.27.73-.05,1.54-.11,2.25-.16v-2.11h-2.12ZM79.54,118.55c-.07-.69-.15-1.46-.22-2.22h-2.07v2.22h2.29ZM54.39,34.99c.06.74.12,1.58.18,2.31h2.07c.04-.8.07-1.54.1-2.16-.8-.05-1.61-.1-2.35-.15M115.24,54.48c-.73.05-1.54.11-2.27.15v2.07c.81.06,1.56.11,2.27.16v-2.38ZM83.73,34.05h2.14c.06-.78.12-1.62.18-2.27-.75.03-1.56.07-2.31.1v2.16ZM93.42,34.99c.06.78.11,1.53.16,2.23.71.03,1.45.07,2.05.1.06-.83.12-1.67.17-2.33h-2.38ZM67.22,31.25c.84-.19,1.69-.38,2.59-.58-.27-.94-.27-2.05.92-2.78.76-.46,1.54-.47,2.3.03,1.11.74,1.19,1.79.81,2.92h2.49c-.3-1.16-.3-2.34,1.04-3.02.83-.42,1.66-.34,2.38.26.94.79.94,1.8.55,2.82h2.59c-.3-1.15-.35-2.28.87-2.99.85-.5,1.72-.42,2.47.19.94.78,1,1.78.61,2.62.92.21,1.96.23,2.74.69.99.59.88,1.72.55,2.71h2.51c-.41-1.15-.35-2.31.93-3.02.8-.45,1.64-.36,2.37.24,1.03.85.96,1.91.41,3.14,1.13-.56,2.14-.67,3,.19.81.8.89,1.77.51,2.58.95.16,1.9.32,2.86.48l-.03-.03c.48.94.96,1.87.34,3.06,1.12-.5,2.07-.22,2.97.34.02.03.05.07.08.09.19.88.38,1.76.55,2.56.73.15,1.67.33,2.62.52l-.03-.03c.44.92.89,1.84.2,3.05,1.18-.37,2.16-.43,2.95.38.79.81.84,1.78.35,2.83,2.78-.81,4.07,1.15,3.24,3.3,1.27-.34,2.47-.44,3.22.87.44.78.38,1.57-.13,2.29-.78,1.09-1.85,1.05-2.88.7v2.24c.95.21,1.89.41,2.82.62l-.03-.03c.6,1.11.83,2.21-.01,3.31-.01.06-.04.12-.09.17-.86.18-1.73.36-2.6.55v1.83c.93.18,1.77.33,2.61.49.08.12.17.25.25.37.15.88.3,1.76.46,2.69.91-.32,2.05-.32,2.78.88.6.97.39,1.93-.32,2.79l.04-.04c-.85.67-1.76.8-2.68.32v2.61c1.14-.48,2.24-.35,2.98.84.49.78.45,1.64-.1,2.39-.76,1.03-1.8,1.07-2.74.72-.14.92-.28,1.85-.42,2.78-.08.1-.16.2-.24.3-.89.17-1.77.33-2.62.49v1.85c.9.18,1.76.35,2.62.53.08.09.15.18.23.26.55,1.1.46,2.16-.15,3.21l.04-.04c-.92.46-1.85.86-2.68.39-.15.93-.3,1.85-.44,2.78-.08.1-.16.2-.24.3-.89.15-1.78.3-2.64.44v1.86c.92.24,1.72.46,2.53.68h-.02c.82.98.95,1.96.37,2.86-.59.92-1.52,1.15-3.22.68.56,1.08.51,2.05-.24,2.86-.78.85-1.77.86-2.92.39.41,1.15.45,2.13-.39,2.93-.8.77-1.74.78-2.87.33.43,1.13.47,2.11-.38,2.91-.8.76-1.75.74-2.93.29.64,1.23.25,2.18-.24,3.12l.04-.04c-1.09.66-2.22.45-3.35.16-.2-.98-.4-1.96-.6-2.9h-2.02v2.22c1.56-.27,2.04-.15,2.62.68.76.7.87,1.56.32,2.49-.54.91-1.61,1.29-2.64.94-.94-.33-1.54-1.31-1.41-2.33.04-.3.13-.58.22-.94-.42.09-.79.22-1.17.24-.39.02-.79-.08-.99-.11-.2.92-.4,1.81-.59,2.69-.05.07-.1.14-.16.21-.9.15-1.8.31-2.76.47.26.98.24,2.15-1.05,2.87-.82.46-1.65.38-2.39-.17-.94-.7-1.03-1.68-.69-2.79h-2.17c-.14.84-.29,1.73-.45,2.62-.06.04-.13.08-.19.12-.93.47-1.87.82-3.04.07.45,1.38.51,2.56-.75,3.32-.75.45-1.57.44-2.3-.06-1.1-.75-1.11-1.83-.77-2.92h-2.58c.37,1.03.43,2.14-.72,2.92-.77.52-1.6.53-2.38.02-1.11-.74-1.15-1.81-.86-2.73-.94-.21-1.84-.4-2.74-.6-.06-.05-.12-.1-.18-.16-.23-.87-.47-1.74-.7-2.61h-1.79c-.2.92-.39,1.8-.59,2.68h0c-1.06.59-2.13.79-3.23.09l.03.03c-.74-.86-.9-1.83-.55-2.77-.89-.11-1.75-.23-2.61-.34-.12-.13-.23-.26-.35-.39-.21-.86-.42-1.72-.63-2.59h-1.86c-.19.89-.38,1.8-.57,2.72l.04-.02c-.25.1-.49.21-.74.32-.93.39-1.79.31-2.53-.41-.84-.83-.82-1.79-.24-2.92-1.12.4-2.14.58-2.99-.27-.83-.83-.79-1.8-.27-3.06-1.22.76-2.21.4-3.18-.1l.03.04c-.42-.96-.79-1.92-.09-3.14-1.2.62-2.15.45-3.06-.11l.03.03c-.67-.93-.88-1.92-.24-3.16-1.16.57-2.11.44-3.02-.11l.04.03c-.72-.97-.92-1.99-.19-3.21-1.27.57-2.33.63-3.18-.38-.63-.75-.7-1.59-.21-2.45.68-1.22,1.78-1.26,2.95-.95v-2.11c-.84-.17-1.66-.34-2.48-.5l-.37-.38c-.18-.88-.35-1.76-.52-2.64-1.37.29-2.37-.02-2.89-1.04-.46-.9-.27-1.86.48-2.48.62-1.15,1.7-.68,2.53-.66v-2.15c-.8-.05-1.58-.1-2.12-.13-.13.97-.27,1.96-.4,2.94-.25.03-.52.02-.75.11-1.11.41-2.03.24-2.67-.54-.59-.72-.65-1.76-.13-2.55.54-.83,1.48-1.13,2.6-.83.13.03.25.08.34.11v-2.65c-1.07.4-2.17.42-2.95-.73-.56-.82-.55-1.68.03-2.47.75-1.01,1.78-1.13,2.88-.69v-2.53c-1.14.35-2.3.3-3.02-.99-.47-.83-.38-1.65.21-2.37.79-.96,1.81-1.08,2.86-.54v-2.59c-.47.02-1.14.22-1.68.03-.55-.19-1.1-.68-1.41-1.18-.5-.8-.2-1.87.5-2.48.77-.68,1.83-.73,2.72-.12.85.58,1.05,1.49.64,2.91.77-.05,1.55-.1,2.33-.15v-2.21c-1.07.31-2.12.27-2.84-.79-.52-.76-.56-1.6-.07-2.4.71-1.18,1.81-1.26,2.79-.97.18-.91.35-1.77.52-2.63.13-.1.26-.2.39-.3.82-.19,1.64-.38,2.49-.57v-2.04c-1.19.23-2.42.25-3.04-1.2-.35-.82-.28-1.61.31-2.28.83-.95,1.85-1,2.7-.59.16-.98.32-1.96.49-2.94l-.04.03c.95-.43,1.9-.9,3.14-.14-.47-1.19-.48-2.17.26-3.04l-.04.03c.83-.82,1.8-.77,2.93-.42-.37-1.07-.39-2.04.37-2.87l-.04.04c.82-.77,1.77-.82,2.51-.56.27-.94.52-1.82.77-2.7,0,0-.03.04-.03.04.83-.79,1.79-.8,2.97-.35-.41-1.16-.48-2.15.38-2.94.86-.79,1.82-.79,2.98-.14-.5-1.37-.62-2.58.68-3.37.75-.46,1.56-.44,2.3.05,1.12.74,1.1,1.83.78,2.89h2.16c.26-.89.52-1.8.78-2.71l-.03.03c1-.94,2.09-.64,3.18-.22.11.11.23.23.34.34.11.84.22,1.67.33,2.48h1.89c.15-.87.3-1.67.44-2.48.17-.1.34-.2.51-.29" style="fill: #f3f5f7;"/>
</svg>